<?xml version="1.0" standalone="no"?>
<!DOCTYPE svg PUBLIC "-//W3C//DTD SVG 20010904//EN"
 "http://www.w3.org/TR/2001/REC-SVG-20010904/DTD/svg10.dtd">
<svg version="1.0" xmlns="http://www.w3.org/2000/svg"
 width="1024.000000pt" height="1024.000000pt" viewBox="0 0 1024.000000 1024.000000"
 preserveAspectRatio="xMidYMid meet">

<g transform="translate(0.000000,1024.000000) scale(0.100000,-0.100000)"
fill="#000000" stroke="none">
<path d="M0 9355 c0 -873 0 -886 19 -875 11 5 31 10 45 10 14 0 30 8 35 18 10
16 12 16 26 -2 8 -11 15 -27 15 -35 0 -11 5 -9 16 7 18 26 27 27 48 6 19 -18
19 -24 6 -44 -9 -13 -11 -13 -20 0 -8 13 -10 13 -10 -2 0 -27 -19 -31 -29 -6
l-10 23 0 -22 c-1 -29 -19 -30 -30 -1 -8 21 -8 21 -15 -6 -6 -23 -11 -27 -31
-24 -13 3 -22 1 -19 -3 3 -5 -1 -9 -8 -9 -8 0 -19 12 -25 28 -8 20 -11 -55
-12 -305 -1 -290 1 -332 14 -327 10 4 18 -3 25 -22 15 -38 5 -74 -20 -74 -17
0 -20 -7 -20 -50 0 -27 4 -50 8 -50 5 0 16 -19 25 -42 18 -44 8 -74 -20 -64
-11 4 -13 -33 -13 -206 0 -192 1 -209 16 -197 14 11 18 10 30 -6 21 -29 18
-85 -4 -85 -10 0 -23 5 -30 12 -9 9 -12 -9 -12 -83 1 -80 3 -91 14 -76 35 45
62 1 30 -49 -13 -19 -20 -22 -30 -13 -12 10 -14 -14 -14 -147 1 -143 2 -156
15 -134 8 14 14 33 15 44 0 16 2 17 16 5 13 -11 15 -11 14 2 -4 25 0 39 10 39
6 0 10 -9 10 -19 0 -28 17 -35 25 -11 11 34 30 17 33 -28 3 -43 -11 -55 -35
-31 -7 7 -13 7 -17 0 -4 -5 -13 -8 -20 -5 -7 3 -19 -2 -26 -11 -7 -8 -19 -15
-26 -15 -12 0 -14 -156 -14 -992 0 -622 4 -987 10 -977 5 9 21 16 37 15 33 -1
42 -30 19 -61 -16 -20 -16 -20 -22 2 -8 30 -27 17 -20 -13 4 -13 2 -24 -3 -24
-5 0 -12 15 -14 33 -2 17 -5 -977 -5 -2210 l-2 -2243 5120 0 5120 0 0 4975 0
4975 -40 0 c-29 0 -40 -4 -40 -15 0 -12 -20 -15 -120 -15 -73 0 -120 -4 -120
-10 0 -5 -18 -10 -40 -10 -22 0 -40 5 -40 10 0 6 -18 10 -39 10 -22 0 -41 5
-43 11 -3 9 -107 13 -361 17 -196 3 -357 9 -357 13 0 5 -24 9 -54 9 -35 0 -58
5 -66 15 -7 8 -19 15 -26 15 -8 0 -14 4 -14 9 0 5 -36 12 -80 16 -44 4 -80 11
-80 16 0 5 -36 9 -80 9 -64 0 -80 3 -80 15 0 11 -11 15 -40 15 -22 0 -40 5
-40 10 0 6 -20 10 -45 10 -50 0 -115 27 -115 48 0 10 -12 13 -47 12 -94 -5
-113 -1 -113 19 0 18 -9 20 -87 23 -57 2 -97 -1 -115 -9 -32 -15 -198 -18
-198 -3 0 6 -18 10 -40 10 -22 0 -40 -4 -40 -10 0 -5 -18 -10 -40 -10 -33 0
-40 3 -40 20 0 20 -25 26 -92 21 -14 -1 -29 3 -33 8 -4 7 -78 11 -211 11
l-204 0 0 -31 c0 -17 6 -57 14 -88 29 -118 29 -121 -4 -121 -25 0 -31 5 -41
40 -13 42 -35 57 -26 18 17 -73 18 -88 8 -88 -6 0 -16 12 -22 28 -7 15 -16 38
-21 52 -6 14 -17 37 -24 52 -8 14 -14 35 -14 47 0 11 -8 36 -17 56 l-17 35
-3448 0 -3448 0 0 -885z m5955 865 c-27 -12 -43 -12 -25 0 8 5 22 9 30 9 10 0
8 -3 -5 -9z m-3131 -1042 c4 -27 3 -48 -2 -48 -10 0 -22 48 -22 88 0 42 17 12
24 -40z m-80 1 c6 -40 2 -59 -10 -46 -3 3 -8 24 -11 46 -7 54 12 54 21 0z
m166 31 c0 -12 -28 -25 -36 -17 -9 9 6 27 22 27 8 0 14 -5 14 -10z m-335 -107
c-12 -28 -30 38 -20 74 8 28 8 27 18 -14 5 -23 6 -50 2 -60z m111 80 c7 -10
13 -29 13 -43 0 -22 -1 -22 -8 -6 -7 18 -8 18 -14 2 -11 -27 -27 -9 -27 30 0
37 15 44 36 17z m-58 -33 c1 -23 -3 -38 -9 -35 -5 4 -9 12 -9 20 0 7 -6 15
-12 18 -10 3 -10 7 1 20 21 26 29 20 29 -23z m-100 2 c-19 -4 -24 -27 -8 -37
18 -11 11 -35 -10 -35 -14 0 -20 7 -20 23 0 13 -5 28 -12 35 -9 9 -6 14 13 20
13 5 31 7 39 3 12 -4 12 -6 -2 -9z m-84 -14 c17 -54 16 -68 -3 -68 -25 0 -44
34 -36 60 7 22 33 27 39 8z m-78 -9 c4 -7 -1 -16 -10 -21 -20 -11 -21 -28 -2
-28 22 0 30 -19 11 -27 -20 -7 -35 12 -35 48 0 37 20 53 36 28z m-68 -53 c3
-32 1 -38 -12 -33 -9 4 -16 2 -16 -3 0 -6 -7 -10 -15 -10 -11 0 -15 11 -15 38
0 45 6 54 35 50 15 -2 21 -12 23 -42z m2859 9 c86 -20 119 -35 209 -96 151
-101 209 -174 334 -414 91 -175 136 -249 209 -349 78 -105 110 -186 117 -290
6 -92 -6 -88 -26 9 -7 33 -25 86 -41 118 -32 62 -46 77 -25 25 25 -60 28 -85
5 -43 -11 22 -28 51 -37 65 -9 14 -17 27 -17 30 0 3 -22 32 -49 63 -46 54 -74
74 -63 43 8 -20 -94 81 -127 125 -14 20 -26 41 -26 48 0 15 -68 114 -86 124
-8 4 -14 13 -14 18 0 6 4 7 10 4 6 -4 7 1 3 11 -5 12 -3 15 6 9 10 -6 11 -3 2
14 -7 11 -14 21 -17 21 -3 0 -2 -4 1 -10 3 -5 1 -19 -5 -30 -9 -17 -5 -34 24
-93 36 -75 41 -99 10 -50 -27 42 -77 103 -81 100 -2 -2 3 -19 11 -38 9 -19 16
-29 16 -24 1 6 4 3 8 -6 7 -17 59 -77 222 -258 106 -117 103 -120 -20 -15 -95
80 -158 149 -216 239 -22 33 -47 69 -56 80 -10 11 -25 29 -33 40 -16 19 -16
19 -10 -5 10 -35 102 -216 138 -270 63 -94 139 -190 149 -190 6 0 1 12 -13 28
l-24 27 25 -21 c14 -11 63 -42 109 -70 116 -68 170 -120 245 -234 35 -54 92
-133 126 -175 93 -118 112 -161 141 -327 6 -38 16 -68 21 -68 5 0 7 4 4 8 -3
5 -12 55 -22 113 -19 121 -47 185 -128 285 -80 99 -114 176 -122 274 l-7 81
24 -10 c158 -62 392 -199 564 -330 115 -88 237 -204 332 -317 92 -111 123
-141 88 -88 -32 49 -5 36 58 -28 177 -180 330 -474 431 -826 30 -103 66 -317
66 -390 l0 -25 -25 23 c-14 13 -25 19 -25 15 0 -5 -16 24 -36 65 -33 68 -84
216 -114 330 -14 55 -108 281 -122 295 -7 6 -6 2 0 -11 6 -11 9 -32 8 -46 -2
-19 1 -25 10 -21 9 3 15 -2 15 -13 1 -11 3 -26 4 -34 1 -8 3 -22 4 -30 1 -13
2 -13 11 0 5 8 10 11 10 5 0 -5 -4 -16 -9 -23 -9 -15 -22 -2 -34 31 -4 10 -11
16 -16 13 -10 -7 -51 13 -74 35 -16 17 -50 89 -41 89 3 0 -6 15 -19 33 -14 17
-43 69 -66 115 -23 46 -49 86 -59 89 -9 3 -27 15 -39 26 -17 15 -33 18 -71 16
-49 -4 -49 -4 -40 20 7 20 6 22 -5 13 -8 -7 -17 -9 -21 -5 -3 4 -13 8 -20 9
-14 2 107 -153 179 -231 50 -54 71 -85 56 -85 -7 0 -10 -4 -6 -10 3 -5 13 -7
23 -4 15 5 15 4 1 -5 -12 -7 -33 -1 -86 26 -58 31 -74 45 -94 82 -44 87 -86
146 -143 204 -32 31 -62 57 -66 57 -5 0 -15 6 -22 13 -18 17 -65 37 -86 37 -9
-1 0 -9 22 -20 108 -54 197 -151 252 -277 31 -70 14 -67 -32 4 -94 148 -168
205 -338 265 -113 40 -200 83 -247 122 -14 11 2 -5 35 -38 l61 -58 -60 45
c-41 31 -80 73 -120 132 -152 221 -209 295 -227 295 -4 0 -34 20 -65 43 -32
24 -92 66 -133 94 -115 77 -176 142 -250 263 -32 54 -74 159 -66 167 2 3 7 -6
11 -19 38 -127 154 -263 344 -400 170 -123 228 -175 256 -228 14 -25 36 -58
51 -75 l26 -30 -20 35 c-11 19 -29 51 -41 70 -57 96 17 29 124 -110 40 -52 81
-103 93 -113 20 -18 20 -17 -2 60 -12 43 -30 92 -40 108 -13 24 -15 25 -10 6
4 -17 3 -21 -6 -16 -8 5 -11 3 -9 -4 3 -7 8 -11 13 -9 8 3 33 -52 35 -76 1 -9
-54 70 -124 180 -45 70 -93 125 -145 167 -19 15 -25 23 -14 18 38 -18 128
-108 149 -147 28 -56 76 -126 82 -120 8 8 -66 127 -113 183 -55 64 -156 145
-237 190 -34 19 -51 31 -37 27 50 -13 126 -57 195 -112 68 -55 69 -55 38 -17
-73 93 -102 111 -258 166 -49 17 -107 40 -129 51 -21 11 -35 15 -31 9 28 -47
-79 52 -130 119 -10 14 -1 6 21 -17 43 -44 111 -79 233 -120 41 -13 97 -35
124 -49 28 -13 52 -22 55 -20 7 8 -75 62 -185 122 -88 48 -126 77 -203 153
-52 52 -98 93 -102 93 -5 -1 -7 1 -6 6 1 4 -7 25 -19 47 -12 23 -33 79 -46
125 -14 47 -28 93 -32 103 -4 9 -5 17 -1 17 10 0 35 -57 65 -152 17 -51 45
-112 62 -136 38 -51 144 -136 221 -176 32 -16 55 -33 52 -38 -3 -5 10 -15 28
-22 18 -8 44 -23 58 -34 14 -11 50 -34 80 -51 l55 -32 -45 41 c-73 66 -201
161 -211 155 -11 -7 -58 17 -98 51 -46 39 -125 160 -181 277 -44 93 -121 203
-106 152 6 -18 4 -18 -13 3 -25 29 -74 29 -134 -2 -26 -13 -47 -22 -47 -20 0
2 27 26 61 54 44 37 55 50 40 50 -25 0 -17 30 8 31 13 0 12 2 -3 8 -19 7 -18
8 5 16 22 7 20 9 -16 13 -36 4 -38 5 -15 12 l25 8 -23 7 c-21 7 -21 8 -5 21
16 12 15 14 -12 15 -24 1 -25 3 -7 6 12 2 22 9 22 14 0 14 67 11 107 -6 42
-18 43 -18 43 -6 0 5 -33 22 -72 37 -87 33 -86 33 -68 45 11 7 4 9 -27 7 -23
-2 -39 0 -37 4 9 13 87 30 115 24 16 -3 31 -1 34 3 2 5 -10 12 -28 15 -48 10
-60 10 -87 2 -24 -7 -24 -6 -6 8 19 15 18 16 -15 16 -27 0 -31 3 -19 11 12 8
10 10 -10 6 -14 -2 -34 -8 -45 -12 -16 -5 -15 -3 5 14 14 11 36 22 50 24 16 3
10 5 -15 6 -24 0 -56 -7 -77 -19 -37 -20 -38 -20 -75 -1 -21 10 -53 21 -71 25
l-33 6 31 -26 c17 -15 29 -29 26 -32 -3 -3 -11 0 -19 6 -14 12 -88 12 -80 0 2
-5 10 -8 18 -8 8 0 16 -3 19 -8 2 -4 -14 -6 -36 -3 -47 4 -150 -18 -142 -31 3
-4 -3 -8 -13 -8 -10 0 -29 -9 -43 -20 l-25 -20 51 19 c67 26 133 35 164 22 24
-10 24 -10 -8 -10 -18 -1 -58 -10 -89 -21 -58 -20 -158 -80 -135 -80 8 0 -1
-12 -20 -27 -38 -32 -53 -49 -70 -78 -6 -11 8 2 32 28 23 26 55 54 71 63 17 8
27 18 25 23 -10 16 85 53 147 57 l62 3 -48 -9 c-27 -5 -52 -12 -55 -16 -4 -3
9 -4 29 0 20 3 47 2 60 -3 15 -6 18 -10 8 -10 -9 -1 -26 -10 -39 -21 l-23 -20
49 0 49 0 -35 -16 c-83 -37 -114 -54 -103 -54 7 0 30 7 52 16 22 8 50 14 63
11 21 -4 20 -4 -4 -6 -35 -1 -37 -21 -2 -21 14 0 23 -4 19 -10 -3 -5 3 -10 14
-10 11 0 23 -4 26 -10 4 -6 -9 -10 -32 -10 -21 0 -45 -5 -53 -11 -11 -7 1 -8
42 -3 34 4 63 2 75 -5 15 -9 11 -10 -17 -5 l-35 5 45 -23 45 -23 -30 -6 -30
-7 35 -2 c23 -1 28 -4 15 -7 -35 -9 -103 -86 -140 -158 -38 -76 -38 -45 1 44
36 81 -1 44 -43 -44 -18 -38 -31 -61 -29 -50 3 11 8 34 11 50 l6 30 -14 -25
c-8 -14 -27 -72 -42 -130 -15 -58 -34 -123 -43 -145 -23 -59 -115 -197 -151
-228 -52 -43 -148 -93 -276 -142 -154 -60 -245 -116 -333 -209 -61 -65 -156
-192 -176 -236 -3 -8 -3 -1 0 15 3 17 7 42 8 57 3 37 68 129 135 190 31 28 47
46 36 40 -37 -20 -73 -56 -124 -125 -54 -73 -81 -144 -81 -216 l1 -46 43 70
c124 197 132 208 191 253 l60 45 -73 -74 c-64 -65 -84 -94 -155 -234 -109
-212 -122 -242 -101 -224 8 7 26 33 39 58 12 25 54 94 93 152 70 107 103 145
78 92 -7 -15 -23 -49 -35 -76 -12 -26 -20 -51 -16 -56 3 -5 1 -21 -5 -35 -22
-60 3 -18 53 88 54 113 97 174 53 74 -43 -96 -38 -104 12 -20 51 87 79 123 66
87 -3 -11 -42 -93 -85 -182 -86 -176 -134 -297 -124 -313 12 -19 103 146 121
215 3 14 12 25 19 25 11 0 11 -12 -1 -61 -20 -87 -11 -83 15 6 13 42 25 74 27
72 10 -10 -19 -145 -43 -206 -14 -36 -46 -98 -70 -138 -51 -84 -234 -284 -365
-398 -186 -163 -255 -292 -268 -505 l-7 -105 -1 90 c-2 112 16 201 61 298 48
103 91 157 205 256 53 46 101 91 106 100 6 9 -13 -3 -41 -26 -53 -45 -75 -56
-52 -25 13 15 12 16 -3 3 -10 -7 -16 -17 -13 -21 5 -9 -96 -100 -110 -100 -5
0 16 22 46 50 60 54 62 69 2 18 -31 -27 -34 -29 -20 -8 26 38 19 49 -9 15 -15
-16 -23 -23 -19 -15 15 28 38 50 47 44 5 -3 8 0 6 7 -3 17 30 69 44 69 5 0 0
-12 -11 -26 -22 -28 -28 -49 -10 -39 9 6 32 56 29 63 -1 2 9 13 22 25 51 47
50 59 -2 18 -67 -52 -161 -154 -185 -201 -23 -45 -31 -24 -10 27 13 31 13 35
1 23 -15 -16 -51 -137 -71 -240 -12 -62 -13 -63 -14 -21 0 23 10 80 23 125 13
44 29 100 35 123 6 23 17 48 24 55 6 7 19 22 27 33 11 15 8 14 -12 -4 -26 -23
-45 -55 -68 -115 -6 -16 -13 -26 -17 -22 -10 10 45 140 81 190 36 51 159 180
201 211 15 11 46 38 70 60 23 22 62 56 88 75 25 19 49 41 52 49 3 7 -12 -2
-33 -20 -21 -19 -85 -68 -142 -109 -145 -107 -240 -210 -295 -324 -74 -152
-78 -178 -72 -500 3 -155 8 -301 11 -325 l6 -43 -93 7 c-50 5 -164 8 -252 9
l-160 1 0 75 c0 41 4 120 9 175 21 246 9 278 -19 52 -20 -159 -37 -236 -45
-211 -13 35 -20 -232 -11 -381 12 -180 24 -260 64 -425 31 -131 79 -260 126
-345 15 -27 33 -63 38 -80 10 -29 11 -29 32 39 15 49 21 96 22 165 0 63 3 89
9 76 7 -16 9 -17 9 -3 1 9 6 20 13 24 11 7 7 -74 -7 -136 -3 -14 1 -10 9 10
l14 35 1 -41 c1 -45 -11 -85 -56 -184 -17 -36 -32 -72 -35 -80 -6 -18 -60 65
-134 205 -160 303 -233 657 -234 1140 -1 184 -2 206 -14 180 -14 -30 -53 -61
-64 -51 -16 17 12 220 55 401 53 222 171 502 289 683 76 116 186 250 279 342
85 82 83 66 -5 -50 -31 -41 -75 -104 -98 -140 -46 -70 -34 -56 73 85 251 332
411 467 787 664 l157 82 -4 -48 c-2 -26 -7 -83 -10 -126 -6 -98 -29 -145 -98
-196 -28 -21 -62 -49 -73 -62 -28 -31 -84 -120 -84 -133 0 -6 11 8 24 31 44
76 77 112 145 157 37 24 97 70 132 101 76 66 269 190 269 171 0 -1 -34 -27
-75 -56 -42 -30 -97 -79 -122 -109 -26 -31 -36 -47 -22 -35 28 24 55 36 169
76 171 61 249 113 310 209 18 27 34 49 36 49 7 0 -9 -35 -26 -55 -33 -40 -51
-75 -36 -69 33 12 142 194 132 220 -3 7 6 55 19 106 18 73 24 86 27 63 3 -16
5 8 5 55 0 47 -2 76 -4 65 -3 -11 -10 -24 -15 -30 -7 -7 -8 -3 -5 10 3 11 8
36 11 55 6 31 3 28 -19 -20 -14 -30 -30 -57 -34 -60 -5 -3 -16 -27 -24 -55
-16 -53 -20 -52 -18 5 1 33 -1 32 -19 -20 -26 -70 -82 -163 -90 -149 -4 6 -40
-24 -81 -67 -41 -42 -110 -104 -154 -137 -44 -34 -124 -103 -179 -154 -55 -50
-102 -90 -104 -88 -15 14 124 163 223 241 216 169 280 241 341 385 19 44 34
83 34 87 0 3 -28 -35 -63 -86 -34 -50 -94 -119 -132 -153 l-70 -63 71 74 c39
41 76 85 82 97 18 34 -2 36 -27 3 -12 -17 -28 -30 -36 -30 -8 0 -21 -10 -29
-22 -9 -13 -56 -59 -105 -103 -101 -89 -123 -123 -33 -50 l57 47 -64 -61 c-35
-34 -66 -59 -69 -56 -2 2 -22 -18 -44 -45 -22 -28 -42 -50 -44 -50 -16 0 119
173 151 194 14 9 23 21 20 27 -4 5 -2 8 3 7 27 -8 287 280 270 298 -3 3 -24
-23 -47 -58 -24 -37 -75 -92 -123 -133 -132 -114 -197 -176 -219 -212 -12 -19
-23 -32 -26 -29 -9 8 56 87 114 139 33 29 91 81 131 116 39 35 92 92 118 127
25 36 49 62 54 59 5 -3 18 12 29 34 12 22 25 42 31 46 5 3 10 12 10 18 0 7
-16 -6 -34 -28 -19 -22 -32 -43 -30 -46 2 -3 -3 -6 -11 -6 -11 0 -10 5 3 26
20 33 13 26 -89 -88 -126 -140 -153 -168 -139 -146 7 11 -32 -25 -87 -81 -102
-104 -154 -184 -179 -273 l-12 -46 -1 58 c-1 88 38 183 125 297 37 49 77 119
228 401 188 353 500 513 843 434z m-3020 -22 c-3 -10 -5 -4 -5 12 0 17 2 24 5
18 2 -7 2 -21 0 -30z m-27 -9 c12 -31 13 -54 1 -54 -5 0 -12 15 -17 33 l-8 32
-3 -38 c-3 -24 -9 -37 -16 -34 -13 4 -22 51 -13 73 9 24 46 16 56 -12z m-86 0
c12 -32 6 -72 -11 -76 -32 -7 -53 4 -54 28 -1 13 -2 29 -3 36 -1 7 10 15 24
19 37 10 37 10 44 -7z m-104 -18 c0 -7 3 -28 6 -45 5 -24 3 -31 -10 -31 -10 0
-16 8 -16 23 0 12 -3 32 -6 45 -5 16 -2 22 10 22 9 0 16 -6 16 -14z m-56 -12
c3 -9 6 -28 6 -44 0 -22 -6 -29 -27 -34 -30 -8 -43 5 -43 47 0 19 7 30 23 37
31 12 34 12 41 -6z m-219 -51 c4 -26 14 -53 23 -61 15 -12 14 -13 -12 -7 -15
3 -35 12 -42 20 -16 15 -19 59 -4 50 6 -4 10 5 10 19 0 44 17 29 25 -21z m120
20 c4 -16 8 -36 10 -45 2 -10 -2 -18 -8 -18 -7 0 -23 -3 -37 -6 l-25 -6 24 21
c18 17 22 28 17 51 -3 17 -1 30 4 30 5 0 12 -12 15 -27z m435 18 c0 -5 -7 -12
-16 -15 -22 -9 -24 -8 -24 9 0 8 9 15 20 15 11 0 20 -4 20 -9z m-460 -32 c0
-5 -4 -9 -10 -9 -5 0 -10 7 -10 16 0 8 5 12 10 9 6 -3 10 -10 10 -16z m-172
-5 c16 -5 22 -14 22 -35 0 -29 -23 -49 -55 -49 -23 0 -40 43 -26 69 12 22 22
25 59 15z m-180 -56 c11 -58 9 -70 -13 -61 -11 3 -15 21 -15 59 0 69 14 69 28
2z m72 -3 c0 -32 -4 -45 -14 -45 -17 0 -25 29 -19 64 9 45 33 31 33 -19z
m-243 -7 c-3 -7 -5 -2 -5 12 0 14 2 19 5 13 2 -7 2 -19 0 -25z m-13 -49 c-1
-33 -11 -49 -30 -49 -12 0 -14 7 -9 30 4 19 3 30 -5 30 -8 0 -9 36 -1 57 1 1
11 -8 24 -20 12 -12 22 -33 21 -48z m129 64 c4 -3 2 -12 -4 -20 -9 -10 -8 -17
1 -28 16 -19 0 -41 -23 -32 -18 7 -29 69 -13 79 14 10 31 10 39 1z m-79 -34
c9 -47 7 -59 -9 -59 -11 0 -15 12 -15 45 0 52 14 60 24 14z m-214 -14 c0 -16
-6 -25 -15 -25 -15 0 -21 31 -8 43 13 14 23 6 23 -18z m-75 -34 c-3 -17 -2
-32 4 -36 19 -11 12 -25 -13 -25 -32 0 -39 13 -32 56 5 25 12 34 27 34 17 0
20 -4 14 -29z m-98 -3 c23 34 33 27 33 -24 0 -41 -2 -46 -20 -41 -11 3 -23 1
-26 -4 -9 -15 -22 -10 -29 11 -4 11 -10 18 -15 15 -5 -3 -7 -12 -4 -19 3 -7
-2 -19 -11 -26 -21 -17 -40 1 -50 48 -8 37 10 51 44 33 17 -9 22 -8 32 11 l12
22 9 -24 10 -25 15 23z m2778 -14 c19 -19 16 -43 -6 -57 -37 -23 -69 29 -37
61 16 16 23 15 43 -4z m3270 -19 c0 -23 -5 -31 -21 -33 -27 -4 -47 21 -39 48
5 16 14 20 33 18 23 -2 27 -8 27 -33z m-6271 -36 c5 -39 3 -66 -3 -72 -13 -13
-18 0 -25 69 -5 49 -1 64 14 64 4 0 11 -28 14 -61z m-59 31 c7 -23 -12 -100
-25 -100 -12 0 -30 33 -30 55 0 9 5 13 10 10 6 -4 10 7 10 24 0 35 25 43 35
11z m147 8 c10 -29 3 -73 -12 -73 -25 -1 -60 26 -60 46 0 31 63 54 72 27z
m308 -10 c0 -18 -2 -20 -9 -8 -6 8 -7 18 -5 22 9 14 14 9 14 -14z m-620 -22
c0 -23 22 -31 35 -13 14 19 35 23 35 6 0 -5 5 -7 10 -4 14 9 23 -20 16 -50 -8
-30 -36 -33 -43 -6 -7 29 -43 23 -43 -7 0 -17 -5 -23 -17 -20 -29 5 -31 108
-3 108 5 0 10 -6 10 -14z m-53 -28 c4 -7 8 -26 9 -41 1 -22 -4 -31 -23 -38
-37 -14 -41 -12 -48 23 -6 26 -3 35 15 50 26 21 36 22 47 6z m6001 -13 c4 -17
-13 -35 -32 -35 -6 0 -1 6 9 14 17 12 18 16 5 32 -13 15 -13 17 0 12 8 -2 17
-13 18 -23z m-6094 -1 c13 -35 6 -73 -15 -79 -29 -9 -32 -2 -25 50 7 45 28 61
40 29z m-112 -28 c8 7 40 -75 33 -85 -2 -5 -19 -8 -37 -7 -29 1 -34 5 -39 36
-7 43 7 76 25 61 7 -6 15 -8 18 -5z m3988 -35 c0 -15 -31 -32 -142 -81 -353
-153 -599 -311 -867 -553 -68 -61 -138 -123 -155 -137 l-31 -25 31 40 c198
252 470 465 807 632 112 56 321 142 345 143 6 0 12 -8 12 -19z m-4055 -26 c0
-23 -5 -31 -22 -33 -18 -3 -21 1 -20 33 1 30 4 35 21 33 16 -2 21 -10 21 -33z
m5851 11 c265 -92 569 -264 784 -445 127 -106 230 -211 207 -211 -10 0 -36 17
-60 38 -240 215 -572 419 -907 558 -126 51 -135 57 -126 73 10 16 24 14 102
-13z m-5919 -28 c-3 -8 -6 -5 -6 6 -1 11 2 17 5 13 3 -3 4 -12 1 -19z m3274
-94 c-5 -16 -10 -21 -10 -12 -1 18 10 51 15 45 2 -1 -1 -16 -5 -33z m-801 -34
l0 -50 183 -2 182 -3 0 -180 0 -180 -295 -1 c-162 0 -312 1 -332 4 l-38 5 0
173 c0 193 -6 178 70 186 22 3 25 8 28 51 l3 47 100 0 99 0 0 -50z m5020 -5
l0 -55 130 0 130 0 0 -175 0 -175 -280 0 -280 0 0 175 0 175 51 0 50 0 -1 48
c-1 26 -1 50 -1 55 1 4 46 7 101 7 l100 0 0 -55z m-501 11 c40 -25 81 -91 81
-128 0 -38 -42 -87 -80 -94 -19 -4 -44 -11 -55 -16 -19 -8 -19 -8 -2 5 9 8 17
19 17 24 0 18 -28 35 -49 28 -24 -7 -36 -36 -19 -47 9 -5 9 -8 1 -8 -20 0 -40
27 -53 74 l-13 46 54 70 c29 38 59 70 66 70 7 0 31 -11 52 -24z m-2569 -9 c0
-2 -10 -12 -22 -23 l-23 -19 19 23 c18 21 26 27 26 19z m1617 -97 c165 -78
282 -145 443 -253 156 -103 193 -132 313 -240 176 -159 204 -235 31 -86 -265
229 -480 370 -809 530 -186 91 -215 109 -215 135 0 18 71 -8 237 -86z m-1937
72 c0 -20 -57 -56 -225 -140 -277 -140 -428 -242 -690 -465 -82 -71 -158 -133
-168 -139 -74 -39 171 213 313 323 203 158 412 283 640 385 94 42 130 52 130
36z m1094 -4 c-5 -8 -2 -9 10 -5 9 4 15 3 13 -1 -3 -4 1 -13 9 -20 8 -7 14 -9
14 -5 1 19 41 -71 49 -110 12 -55 36 -144 58 -209 l18 -53 -51 -1 c-81 -1
-215 -45 -236 -78 -21 -32 -4 -33 80 -4 48 16 117 32 153 35 64 5 67 5 84 -21
22 -33 16 -40 -21 -25 -42 16 -133 13 -180 -5 -32 -14 -46 -28 -67 -68 -32
-62 -26 -76 14 -28 20 23 29 29 29 18 0 -11 14 -21 40 -29 35 -11 43 -10 56 3
13 13 14 20 4 39 -11 23 -11 23 5 4 20 -26 48 -26 56 0 6 19 6 19 14 1 6 -15
1 -26 -23 -48 -26 -22 -42 -28 -80 -28 -34 0 -43 -3 -32 -10 8 -5 40 -10 70
-10 61 0 120 28 120 56 0 13 6 11 25 -10 27 -29 31 -31 41 -14 4 6 3 8 -4 5
-6 -5 -8 1 -4 15 l5 22 10 -22 c14 -31 -16 -215 -52 -319 -41 -120 -84 -185
-191 -294 -214 -217 -298 -229 -488 -68 -177 148 -268 312 -302 541 -11 77 -8
118 11 118 5 0 9 -7 9 -16 0 -14 3 -14 15 -4 8 7 15 9 15 5 0 -4 6 -2 13 4 8
6 17 8 20 4 4 -3 7 0 7 7 0 8 10 4 26 -11 31 -29 103 -32 149 -5 17 9 22 15
12 12 -52 -16 -70 -17 -96 -6 -39 16 -55 49 -39 83 13 26 23 21 37 -19 15 -43
32 -50 72 -34 23 10 29 18 26 32 -5 19 -4 19 21 2 15 -9 35 -26 44 -38 10 -12
18 -16 18 -8 0 26 -32 73 -63 92 -35 22 -32 25 7 10 14 -5 26 -6 26 -2 0 5
-33 20 -72 35 -98 35 -45 37 67 2 43 -13 81 -22 83 -20 3 2 -9 18 -26 34 -20
21 -54 37 -106 53 -42 12 -72 24 -67 27 4 4 25 38 46 76 45 82 153 254 171
273 21 21 79 41 101 36 12 -3 24 -1 27 5 5 7 46 11 107 11 74 0 98 -3 93 -12z
m-4571 -115 c6 -33 0 -50 -19 -57 -26 -10 -54 12 -54 43 0 35 6 41 41 41 21 0
28 -6 32 -27z m57 -13 c6 0 8 -5 5 -11 -8 -13 -35 19 -34 41 0 8 4 5 9 -7 5
-13 14 -23 20 -23z m5289 -7 c47 -20 100 -44 116 -53 17 -9 59 -32 95 -50 122
-63 373 -236 429 -294 29 -32 51 -60 48 -63 -7 -7 -39 13 -174 107 -170 119
-236 158 -428 255 -143 72 -181 96 -183 113 -2 12 0 22 4 22 4 0 46 -17 93
-37z m-5629 -5 c0 -18 3 -43 6 -55 5 -16 2 -23 -9 -23 -10 0 -16 15 -20 47 -5
50 -2 63 14 63 5 0 9 -15 9 -32z m114 16 c19 -51 -5 -99 -46 -89 -36 9 -46 62
-16 88 25 21 54 22 62 1z m3582 0 c-3 -9 -6 -20 -6 -25 0 -5 -67 -42 -149 -83
-188 -94 -424 -244 -626 -400 -34 -26 -30 -20 25 43 115 129 342 287 585 407
156 76 181 85 171 58z m-3768 -61 c-3 -49 -22 -68 -33 -33 -9 30 4 80 21 80
12 0 14 -11 12 -47z m2778 25 c-9 -12 -16 -39 -16 -60 0 -21 -4 -38 -9 -38 -5
0 -16 -3 -24 -6 -11 -4 -17 3 -21 25 -19 96 -19 89 11 94 15 2 38 5 51 6 22 1
22 0 8 -21z m-2856 -34 c10 -26 4 -74 -10 -74 -4 0 -10 12 -14 28 -3 15 -8 37
-12 50 -9 32 24 29 36 -4z m-180 -40 c0 -24 -4 -44 -9 -44 -10 0 -24 77 -16
91 13 20 25 -4 25 -47z m108 34 c-2 -13 -9 -22 -16 -20 -21 4 -13 -16 9 -23
31 -10 8 -27 -32 -23 -30 3 -34 6 -32 31 3 38 20 57 50 57 20 0 24 -4 21 -22z
m1830 -48 c21 -19 27 -44 22 -80 -7 -54 -93 -70 -129 -24 -29 37 -27 78 5 103
34 27 74 27 102 1z m6146 -1 c30 -24 35 -71 11 -106 -43 -62 -159 -10 -141 63
15 59 81 81 130 43z m-3784 -62 c0 -2 -12 -14 -27 -28 l-28 -24 24 28 c23 25
31 32 31 24z m-2202 -166 l122 -129 0 -211 c0 -237 -2 -231 79 -231 40 0 41
-1 41 -34 0 -30 17 -53 133 -181 146 -163 160 -181 155 -196 -2 -5 -76 64
-166 154 -128 130 -162 169 -162 190 0 25 -3 27 -44 27 -81 0 -76 -15 -76 241
l0 228 -48 48 c-94 92 -172 185 -172 204 0 10 3 19 8 19 4 0 62 -58 130 -129z
m2442 121 c0 -5 -7 -17 -15 -28 -14 -18 -14 -17 -4 9 12 27 19 34 19 19z
m-2890 -22 c14 -25 -7 -50 -42 -50 -19 0 -20 2 -8 10 13 9 13 12 -4 25 -10 7
-15 18 -11 24 11 19 54 12 65 -9z m6330 -2 c0 -5 -46 -64 -102 -129 l-103
-119 -5 -227 -5 -228 -62 -3 -63 -3 0 -32 c0 -28 -21 -53 -161 -194 -152 -154
-194 -190 -169 -143 15 28 119 148 212 246 71 74 78 85 78 121 l0 40 59 7 c58
7 59 7 65 44 3 20 6 117 6 216 l0 179 116 123 c105 112 134 134 134 102z
m-6522 -51 c4 -42 -11 -53 -53 -43 -20 5 -25 13 -25 36 0 32 23 51 55 47 15
-1 21 -11 23 -40z m82 39 c0 -3 -7 -12 -16 -21 -12 -12 -14 -19 -6 -27 8 -8 8
-17 1 -30 -14 -25 -32 -23 -24 3 4 12 2 24 -4 28 -14 9 14 51 35 51 8 0 14 -2
14 -4z m5950 -9 c0 -26 -25 -37 -84 -36 -70 1 -50 17 22 18 30 1 42 5 42 16 0
8 5 15 10 15 6 0 10 -6 10 -13z m-6190 -57 c0 -33 -4 -60 -10 -60 -5 0 -10 15
-10 34 0 19 -4 38 -10 41 -15 9 -12 25 5 25 8 0 15 5 15 10 0 6 2 10 5 10 3 0
5 -27 5 -60z m5920 14 c0 -33 -12 -45 -25 -24 -3 6 -1 10 4 10 6 0 11 5 11 10
0 17 -28 11 -33 -7 -4 -14 -5 -13 -6 4 0 12 -7 25 -13 29 -9 6 -5 10 12 14 38
10 50 1 50 -36z m-5852 -22 c2 -40 0 -52 -11 -52 -15 0 -27 40 -27 87 0 18 5
24 18 21 13 -2 18 -15 20 -56z m534 -94 c3 -308 -4 -563 -15 -570 -7 -4 -15
-2 -19 5 -4 7 -8 171 -8 365 0 345 0 352 20 352 19 0 20 -7 22 -152z m6158
-213 c0 -201 -4 -365 -8 -365 -30 0 -32 29 -32 377 0 346 0 353 20 353 20 0
20 -7 20 -365z m-920 344 c0 -5 -4 -7 -10 -4 -19 12 -10 -29 13 -53 12 -14 16
-23 9 -21 -20 7 -46 54 -39 73 7 18 27 22 27 5z m-5577 -6 c-7 -2 -21 -2 -30
0 -10 3 -4 5 12 5 17 0 24 -2 18 -5z m990 0 c-23 -2 -64 -2 -90 0 -26 2 -7 3
42 3 50 0 71 -1 48 -3z m-1319 -15 c3 -7 7 -25 10 -40 9 -41 -20 -36 -30 5
l-8 32 -6 -39 c-4 -33 -10 -41 -33 -47 -26 -7 -30 -4 -44 29 -14 33 -14 37 4
49 10 8 26 12 35 9 10 -2 21 0 24 5 8 13 44 11 48 -3z m-210 -39 c3 -17 6 -43
6 -56 0 -37 -24 -23 -30 18 -10 63 12 98 24 38z m6450 -15 c3 -26 6 -184 6
-351 l0 -304 -97 -100 c-53 -54 -98 -97 -101 -94 -2 2 20 30 51 62 67 70 97
104 98 112 1 10 1 261 -1 381 -1 71 -4 107 -9 95 -11 -25 -77 -86 -85 -78 -3
4 -6 1 -6 -5 0 -18 -51 -72 -62 -65 -7 3 -8 1 -4 -5 3 -6 -3 -16 -15 -23 -17
-9 -23 -8 -30 2 -9 15 18 52 33 43 4 -3 8 -2 7 3 -4 23 2 35 17 29 8 -3 12 -2
9 4 -3 5 5 21 19 35 15 14 26 31 26 36 0 6 23 40 50 77 46 61 50 71 50 122 0
31 3 60 7 63 17 18 31 3 37 -39z m-6378 0 c9 -49 -10 -68 -37 -35 -10 13 -19
33 -19 45 1 21 1 21 16 1 16 -20 16 -20 9 3 -5 16 -2 22 9 22 9 0 18 -13 22
-36z m3522 19 c-10 -2 -28 -2 -40 0 -13 2 -5 4 17 4 22 1 32 -1 23 -4z m-3640
-30 c3 -22 -25 -63 -43 -63 -6 0 -16 14 -23 32 -16 42 4 58 31 25 17 -21 18
-21 8 -1 -6 12 -7 24 -4 28 12 11 28 0 31 -21z m-99 -9 c-10 -12 -10 -20 -1
-35 22 -34 -6 -52 -39 -26 -15 11 -15 17 -3 45 9 22 20 32 35 32 18 0 20 -2 8
-16z m-69 -54 c0 -56 -22 -69 -41 -26 -16 34 -4 76 21 76 17 0 20 -7 20 -50z
m1752 -174 c-2 -186 -5 -223 -22 -264 l-19 -47 0 262 c-1 263 1 277 34 269 6
-2 9 -81 7 -220z m2628 220 c0 -2 -8 -10 -17 -17 -16 -13 -17 -12 -4 4 13 16
21 21 21 13z m-4451 -23 c7 -12 3 -28 -12 -55 -28 -48 -47 -56 -47 -20 0 16
-5 33 -11 39 -15 15 -4 43 15 43 8 0 17 -8 19 -17 4 -14 5 -12 6 5 1 26 16 29
30 5z m-89 -25 c0 -4 -9 -8 -20 -8 -13 0 -22 -9 -26 -25 -3 -14 -10 -22 -15
-19 -12 7 -11 26 1 58 8 23 12 25 35 14 14 -6 25 -15 25 -20z m6366 -5 c23
-31 24 -34 5 -18 -22 19 -46 55 -38 55 3 0 17 -17 33 -37z m-6456 2 c7 -9 10
-18 7 -22 -4 -3 -2 -12 4 -19 15 -18 3 -34 -25 -34 -28 0 -59 31 -38 37 6 3 9
9 6 14 -9 15 3 39 19 39 8 0 20 -7 27 -15z m-390 -75 c-6 -11 -15 -20 -20 -20
-19 0 -21 22 -5 47 15 23 19 24 27 10 5 -11 5 -24 -2 -37z m49 13 c0 -21 -4
-47 -8 -58 -7 -16 -9 -14 -14 14 -11 54 -8 81 8 81 11 0 15 -11 14 -37z m424
30 c8 -7 -11 -33 -24 -33 -5 0 -9 9 -9 20 0 19 20 27 33 13z m-533 -93 l0 -50
-42 3 c-42 2 -43 3 -46 41 -4 45 10 65 31 47 11 -9 17 -8 27 4 20 24 30 8 30
-45z m260 15 c0 -29 -15 -33 -29 -6 -11 20 -5 31 16 31 7 0 13 -11 13 -25z
m4021 -61 c32 -114 23 -145 -29 -109 -28 20 -70 151 -53 168 8 8 11 7 11 -5 0
-19 50 -131 56 -125 2 2 -2 22 -10 44 -13 36 -20 82 -17 108 3 23 25 -19 42
-81z m1160 59 c13 -16 12 -17 -3 -4 -10 7 -18 15 -18 17 0 8 8 3 21 -13z m26
-35 c-3 -8 -6 -5 -6 6 -1 11 2 17 5 13 3 -3 4 -12 1 -19z m-41 -53 l-5 -40 19
40 c11 22 17 29 14 15 -4 -14 -15 -41 -25 -60 l-18 -35 3 65 c2 40 1 57 -4 45
-5 -11 -9 -41 -9 -67 -1 -47 -15 -68 -33 -50 -6 6 -2 34 13 80 19 58 26 69 37
59 10 -7 12 -24 8 -52z m-3059 -177 c-1 -40 -3 -10 -3 67 0 77 1 110 3 73 2
-37 2 -100 0 -140z m-2038 145 c13 -47 14 -83 1 -103 -12 -19 -16 -5 -24 78
-6 69 7 84 23 25z m-55 -14 c9 -45 7 -89 -3 -89 -4 0 -11 17 -14 38 -3 20 -9
47 -13 60 -4 16 -2 22 9 22 8 0 17 -13 21 -31z m-35 -37 c0 -30 -2 -33 -9 -17
-12 28 -12 67 0 60 6 -3 10 -23 9 -43z m-28 -12 c8 -55 -6 -76 -22 -32 -6 18
-15 32 -20 32 -4 0 -6 -7 -3 -15 9 -23 -4 -51 -17 -38 -8 8 -19 6 -39 -5 -23
-14 -31 -14 -44 -3 -16 14 -21 56 -10 85 10 26 69 21 82 -6 10 -22 11 -22 11
5 1 25 4 28 29 25 24 -3 28 -8 33 -48z m-222 -33 c0 -33 -2 -38 -9 -22 -12 28
-12 78 0 70 6 -3 10 -25 9 -48z m2809 15 c25 -32 3 -82 -36 -82 -29 0 -62 30
-62 55 0 48 66 67 98 27z m4212 -1 c5 -11 10 -24 10 -30 0 -18 -39 -51 -59
-51 -41 0 -68 59 -39 88 20 20 76 15 88 -7z m-5806 -23 c20 -28 20 -43 0 -62
-30 -31 -94 -7 -94 35 0 46 67 66 94 27z m7340 -10 c8 -22 6 -32 -9 -48 -22
-24 -42 -25 -67 -3 -22 20 -23 32 -2 61 22 32 65 26 78 -10z m-2662 -118 c16
-25 44 -92 62 -150 39 -122 88 -225 142 -296 21 -27 31 -43 22 -37 -8 7 -19 9
-23 5 -5 -4 -5 -2 -2 4 7 12 -16 38 -24 29 -18 -17 -177 294 -162 318 4 6 1 7
-7 2 -9 -5 -10 -2 -6 12 7 22 -50 156 -91 213 -20 29 -17 27 18 -10 23 -25 55
-65 71 -90z m-4204 -393 c127 -141 131 -147 100 -147 -15 0 -39 19 -72 58 -27
31 -139 149 -249 262 -219 224 -252 263 -242 281 9 13 294 -268 463 -454z
m6789 437 c3 -10 -416 -474 -485 -536 -39 -35 -47 -38 -101 -38 -59 0 -106
-18 -153 -58 -20 -17 -24 -72 -8 -103 18 -32 1 -21 -20 14 -29 47 -25 78 13
114 47 45 89 63 162 70 l65 6 77 86 c287 319 423 463 437 458 5 -2 11 -8 13
-13z m-1348 -50 c26 -33 27 -56 4 -76 -34 -30 -61 -31 -88 -4 -32 32 -32 59 1
85 36 28 58 26 83 -5z m-4405 0 c19 -19 21 -54 3 -78 -18 -24 -76 -25 -93 -1
-32 43 -6 95 46 95 16 0 36 -7 44 -16z m1247 -163 c36 -125 44 -180 34 -218
-7 -23 -11 -12 -25 67 -9 52 -24 122 -33 155 -10 32 -16 82 -16 110 1 32 3 39
6 20 2 -16 18 -77 34 -134z m1744 19 c-16 -39 -30 -69 -32 -67 -2 2 9 36 24
75 16 38 30 68 32 66 2 -2 -8 -35 -24 -74z m-4737 58 c5 -7 15 -30 23 -50 10
-30 10 -39 -1 -53 -17 -20 -22 -14 -30 37 -4 24 -11 51 -15 61 -8 20 8 23 23
5z m882 4 c0 -5 18 -19 41 -31 30 -17 49 -21 75 -17 26 5 36 3 40 -9 4 -9 18
-15 35 -15 24 0 29 -4 29 -24 0 -17 37 -63 126 -157 129 -138 214 -242 214
-262 -1 -19 -338 331 -367 381 l-27 45 -9 -29 c-16 -50 -47 -74 -47 -36 0 12
-9 18 -31 19 -43 3 -99 33 -122 65 -19 25 -19 28 -3 52 15 24 46 36 46 18z
m6054 -8 c21 -55 -2 -102 -54 -110 -42 -7 -52 -19 -22 -27 12 -3 11 -5 -6 -6
-13 0 -30 6 -38 14 -22 21 -64 20 -65 -2 0 -12 -4 -8 -11 10 -12 32 -24 35
-33 6 -16 -48 -364 -428 -365 -397 0 18 86 124 234 288 47 52 91 110 98 128
13 34 54 53 99 46 15 -3 48 9 84 30 72 40 71 40 79 20z m-5424 -111 c142 -151
133 -152 -15 -1 -61 61 -92 97 -70 80 22 -17 60 -52 85 -79z m-1566 71 c8 -30
-1 -67 -15 -58 -5 3 -7 9 -4 14 3 5 1 19 -4 33 -9 24 -6 37 10 37 4 0 10 -12
13 -26z m-62 -44 c2 -36 0 -45 -14 -48 -12 -2 -19 5 -24 22 -3 14 -10 26 -15
26 -5 0 -7 -11 -3 -24 7 -31 -12 -43 -26 -16 -14 26 -28 26 -26 -2 2 -34 -18
-31 -32 4 -11 29 -10 35 5 46 11 8 33 12 56 9 31 -4 37 -2 37 13 0 19 20 32
32 21 3 -3 8 -26 10 -51z m4869 -22 c-6 -29 -16 -75 -21 -103 l-9 -50 4 55 c4
64 25 164 32 156 3 -2 0 -28 -6 -58z m-1634 10 c-3 -7 -5 -2 -5 12 0 14 2 19
5 13 2 -7 2 -19 0 -25z m-3397 -27 c0 -46 -23 -62 -41 -29 -11 21 -12 21 -26
2 -8 -10 -19 -18 -24 -16 -5 1 -9 -8 -9 -20 0 -33 -20 -9 -30 36 -7 33 -6 38
15 46 12 5 32 6 44 3 12 -3 21 -1 21 6 0 6 11 11 25 11 22 0 25 -4 25 -39z
m-163 -13 c-3 -7 -5 -2 -5 12 0 14 2 19 5 13 2 -7 2 -19 0 -25z m5395 -156
c43 -68 114 -145 178 -196 l35 -27 -53 27 c-30 15 -56 33 -59 41 -3 7 -13 13
-23 13 -20 0 -53 34 -43 44 5 4 1 6 -7 4 -9 -2 -15 4 -15 14 0 9 -4 20 -9 25
-5 5 -6 2 -1 -6 6 -10 4 -12 -4 -7 -7 5 -10 15 -7 23 3 8 2 11 -4 8 -12 -7
-62 78 -64 109 0 13 -5 22 -10 18 -5 -3 -7 2 -3 10 3 9 2 19 -2 24 -5 5 -11
23 -15 39 -4 20 5 10 28 -33 19 -35 54 -94 78 -130z m126 133 c-3 -3 -13 7
-23 22 l-17 28 23 -22 c12 -12 20 -25 17 -28z m-5548 -7 c0 -48 -16 -42 -26
10 -5 25 -3 32 10 32 12 0 16 -10 16 -42z m1391 24 c-18 -2 -37 0 -42 5 -5 5
11 6 34 3 41 -4 41 -5 8 -8z m2654 -22 c5 -35 23 -63 36 -55 7 5 27 -9 73 -50
15 -14 94 -52 145 -70 27 -9 61 -13 90 -10 33 4 42 3 31 -5 -8 -5 -10 -10 -4
-10 6 0 20 8 31 18 48 41 117 98 134 109 9 7 23 36 30 65 l14 53 6 -150 c4
-92 15 -189 28 -250 12 -55 24 -132 28 -172 l6 -71 -39 -20 c-97 -49 -182 -67
-324 -67 -142 0 -189 10 -290 60 -81 41 -85 50 -71 163 7 53 22 131 33 172 12
46 22 124 25 203 6 127 10 149 18 87z m-4106 16 c7 -8 11 -27 9 -43 -3 -25 -7
-28 -38 -28 -32 0 -35 3 -38 33 -3 26 1 34 20 41 32 13 34 13 47 -3z m3520
-125 c1 -105 -5 -85 -12 34 -3 56 -2 87 3 70 4 -16 8 -63 9 -104z m-3666 107
c20 -15 29 -52 21 -85 -7 -25 -34 -32 -34 -9 0 23 -22 24 -57 4 -60 -36 -102
-7 -72 48 16 30 27 30 39 0 13 -36 30 -42 30 -10 0 29 25 64 45 64 6 0 19 -6
28 -12z m-174 -39 c20 -58 11 -100 -16 -78 -15 13 -18 109 -4 109 5 0 14 -14
20 -31z m8617 15 c95 -45 86 -202 -15 -250 -40 -19 -89 -14 -129 15 -38 27
-89 101 -75 109 5 4 13 20 17 36 4 16 24 47 45 68 33 32 45 38 81 38 23 0 57
-7 76 -16z m-8666 -60 c0 -15 -6 -24 -15 -24 -8 0 -15 -4 -15 -10 0 -16 -37
-11 -44 6 -10 26 -7 33 21 48 34 18 53 11 53 -20z m8432 -7 c0 -4 -3 -25 -7
-47 -5 -30 -11 -40 -26 -40 -23 0 -24 19 -2 65 15 31 34 43 35 22z m-8532 -48
c0 -20 -4 -29 -12 -26 -7 2 -13 9 -12 15 1 7 2 21 3 33 2 31 21 12 21 -22z
m6731 -6 c13 -16 12 -17 -3 -4 -10 7 -18 15 -18 17 0 8 8 3 21 -13z m-1436
-86 c148 -173 375 -294 672 -358 76 -16 156 -34 177 -40 l39 -11 -6 -81 c-7
-92 -26 -187 -39 -187 -4 0 -9 12 -9 28 -2 21 -3 18 -9 -13 -6 -36 -7 -37 -9
-10 -1 17 -6 39 -11 50 -7 17 -9 16 -10 -10 -1 -41 -21 -70 -45 -69 -38 3 -40
4 -25 14 10 6 11 10 3 10 -7 0 -24 -22 -38 -50 -14 -27 -27 -50 -28 -50 -2 0
-4 14 -5 31 -1 16 -11 40 -22 52 -11 11 -20 27 -20 34 0 7 -4 13 -9 13 -5 0
-12 11 -15 25 -4 15 -11 22 -20 19 -8 -3 -22 8 -34 28 -87 142 -186 268 -247
311 -30 22 -30 22 6 -23 19 -25 60 -83 89 -130 29 -47 60 -95 67 -106 13 -20
11 -23 -31 -48 -52 -30 -64 -33 -45 -9 12 15 12 16 -3 10 -12 -4 -15 -2 -11 9
3 7 0 14 -7 14 -10 0 -10 3 0 15 6 8 9 19 5 26 -6 8 -10 7 -16 -2 -6 -10 -9
-7 -9 11 -1 22 -2 23 -11 7 -5 -9 -7 -23 -4 -30 4 -6 -1 -3 -9 7 -9 11 -16 26
-16 34 0 9 -13 1 -31 -19 -25 -28 -28 -29 -18 -9 11 22 11 24 -3 12 -13 -11
-19 -8 -35 20 -10 18 -25 48 -32 66 -8 18 -16 31 -18 28 -3 -3 11 -37 32 -77
l36 -72 -40 32 c-42 33 -48 47 -118 246 -19 54 -43 116 -54 137 -10 20 -19 41
-19 47 0 5 -18 40 -40 79 -22 38 -40 73 -40 78 0 9 3 6 85 -89z m-3276 73 c17
-9 297 -306 341 -362 12 -16 17 -28 12 -28 -11 0 -99 90 -226 231 -47 54 -99
105 -114 115 -25 17 -63 21 -219 24 -7 0 -13 7 -13 15 0 12 18 15 101 15 55 0
108 -4 118 -10z m5959 -7 c-3 -15 -16 -18 -88 -21 -47 -1 -95 -4 -107 -7 -11
-3 -71 -60 -131 -127 -209 -233 -232 -255 -232 -228 0 13 326 387 343 393 7 3
58 6 115 6 93 1 103 -1 100 -16z m-3478 3 c0 -3 -33 -74 -74 -158 -40 -84 -90
-202 -110 -263 -20 -60 -42 -117 -49 -125 -7 -8 -41 -30 -77 -49 -36 -19 -85
-51 -110 -71 l-45 -38 -45 35 c-25 19 -47 37 -49 39 -5 4 116 188 161 247 40
50 22 47 -28 -5 -132 -141 -223 -278 -183 -278 14 0 43 -29 45 -47 2 -8 -5
-23 -14 -33 -9 -10 -25 -30 -35 -44 -21 -31 -37 -34 -37 -7 0 22 -20 40 -21
19 -1 -18 -20 30 -29 72 -6 29 -8 22 -9 -35 0 -38 3 -76 7 -83 5 -7 6 -26 4
-43 -6 -38 -17 -24 -33 39 -7 23 -14 40 -17 37 -3 -2 -5 -38 -4 -77 0 -42 -2
-64 -7 -53 -4 11 -16 40 -27 65 -12 25 -24 52 -27 60 -3 8 -4 -16 -1 -55 5
-67 4 -69 -10 -40 l-15 30 4 -45 5 -45 -13 45 c-8 25 -17 52 -20 60 -7 16 0
-72 10 -125 8 -45 -11 -18 -26 35 -7 25 -19 60 -28 79 -18 40 -48 187 -61 295
l-9 78 31 13 c17 7 95 27 172 44 178 38 316 82 419 131 91 44 214 145 290 238
44 54 65 72 65 58z m-675 -73 c-8 -27 -15 -52 -15 -56 0 -5 -5 -5 -11 -1 -8 4
-9 -1 -5 -17 3 -13 3 -18 0 -11 -4 8 -19 -2 -44 -31 -21 -24 -65 -65 -97 -92
-50 -42 -45 -35 33 45 56 59 101 117 118 153 16 31 30 57 32 57 2 0 -3 -21
-11 -47z m2781 -25 c4 -7 -9 1 -29 16 -20 16 -37 30 -37 33 0 7 58 -36 66 -49z
m-6560 -44 c7 -39 -2 -84 -16 -84 -6 0 -10 21 -10 48 0 26 -4 54 -9 62 -6 8
-7 18 -4 23 9 15 32 -14 39 -49z m1504 10 c8 -23 9 -39 2 -46 -13 -13 -45 20
-38 39 3 8 6 24 6 34 0 29 17 14 30 -27z m-1572 -32 c2 -39 -1 -62 -8 -62 -5
0 -10 8 -10 19 0 10 -3 40 -7 66 -5 38 -3 47 8 43 10 -3 15 -24 17 -66z m1496
33 c4 -19 2 -43 -3 -53 -9 -15 -10 -15 -11 4 0 12 -3 36 -6 53 -4 18 -2 31 4
31 5 0 13 -16 16 -35z m4720 27 c3 -5 -1 -9 -9 -9 -8 0 -12 4 -9 9 3 4 7 8 9
8 2 0 6 -4 9 -8z m456 -27 c13 -14 21 -25 18 -25 -2 0 -15 11 -28 25 -13 14
-21 25 -18 25 2 0 15 -11 28 -25z m-5232 -32 c-3 -44 -5 -48 -30 -51 -22 -3
-29 2 -34 23 -7 30 3 46 16 25 8 -12 10 -9 10 11 0 29 7 39 27 39 11 0 13 -12
11 -47z m-86 -15 c1 -21 -1 -41 -6 -45 -7 -8 -15 0 -43 44 -10 16 -12 13 -12
-20 -1 -46 -21 -46 -33 -1 -11 39 -4 52 24 47 15 -3 30 2 38 12 17 21 28 8 32
-37z m716 38 c57 -30 83 -69 89 -135 5 -50 3 -61 -8 -59 -8 2 -18 8 -22 13 -4
6 -7 -1 -5 -15 3 -24 5 -25 108 -31 82 -4 91 -6 40 -7 -36 -1 -115 -9 -177
-17 -126 -17 -153 -11 -195 40 -37 45 -98 140 -98 153 0 7 12 14 28 18 15 3
41 12 58 20 64 28 80 33 117 33 21 1 50 -5 65 -13z m4221 -21 c37 -19 162 -66
277 -104 201 -66 297 -107 373 -158 45 -30 142 -137 165 -181 13 -25 0 -16
-56 41 -95 95 -278 192 -341 180 -45 -9 -232 16 -302 40 -71 25 -195 83 -195
92 0 3 8 2 18 -3 9 -5 31 -12 47 -16 27 -6 28 -5 9 6 -26 16 -105 84 -84 72 8
-4 38 -25 65 -45 70 -53 276 -131 283 -109 2 6 13 10 23 10 11 0 17 -5 14 -10
-4 -6 5 -10 22 -8 15 1 38 -4 50 -10 12 -7 32 -12 45 -11 29 1 -28 27 -152 71
-108 38 -276 119 -315 152 -41 35 -26 32 54 -9z m-159 -32 c0 -7 -58 36 -66
49 -4 7 9 -1 29 -16 20 -16 37 -30 37 -33z m-810 -164 c10 -54 20 -124 22
-158 3 -61 18 -87 18 -31 0 33 11 38 30 15 7 -9 41 -32 74 -52 68 -39 157
-116 285 -244 l86 -86 -24 -54 c-14 -30 -47 -117 -73 -194 -50 -142 -57 -128
-12 23 14 46 22 93 19 105 -5 16 -4 18 3 8 7 -10 12 -2 17 28 4 23 4 45 1 48
-3 4 -6 -5 -7 -18 0 -22 -1 -22 -9 -4 -5 13 -3 24 6 31 20 16 17 23 -6 17 -12
-3 -20 0 -20 6 0 7 5 9 13 5 8 -6 8 -3 -1 9 -8 9 -11 21 -7 27 10 17 -1 11
-20 -10 -18 -20 -18 -21 1 -14 14 5 16 4 8 -5 -6 -6 -18 -9 -28 -5 -15 6 -15
8 -2 23 14 15 13 17 -4 17 -10 0 -16 -4 -14 -8 3 -4 0 -8 -5 -8 -6 0 -11 5
-11 10 0 7 -7 7 -21 -1 -19 -9 -25 -7 -47 17 l-24 29 6 -25 c3 -14 3 -19 0
-12 -3 6 -11 12 -18 12 -7 0 -18 11 -24 25 -6 14 -18 25 -27 25 -8 0 -15 7
-15 16 0 13 -3 14 -13 5 -11 -9 -18 -2 -32 30 -15 32 -20 37 -27 24 -5 -8 -7
-19 -4 -23 2 -4 1 -14 -5 -22 -7 -12 -9 -11 -10 5 l0 20 -8 -20 c-6 -14 -11 2
-16 55 -4 41 -11 84 -16 95 -9 19 -7 -73 7 -507 4 -123 3 -188 -4 -188 -11 0
-18 94 -32 435 -12 298 -26 470 -46 585 -25 143 -25 147 -3 90 11 -30 29 -98
39 -151z m3275 151 c-7 -25 -14 -40 -15 -35 0 6 -7 -5 -15 -22 -8 -18 -21 -33
-29 -33 -8 0 -17 -6 -19 -12 -3 -7 -6 -3 -6 9 -2 54 1 53 -201 53 -194 0 -212
4 -189 41 7 11 52 14 231 16 181 2 225 6 237 18 21 21 22 15 6 -35z m-7363 5
c9 -33 -1 -49 -28 -43 -26 5 -43 56 -24 69 24 15 43 6 52 -26z m-92 1 c0 -13
7 -29 15 -36 18 -15 2 -42 -19 -34 -15 6 -39 70 -31 84 12 19 35 10 35 -14z
m2664 9 c-4 -8 -10 -15 -14 -15 -5 0 -11 -9 -15 -19 -3 -11 -34 -44 -68 -73
l-62 -53 80 87 c44 48 81 87 82 88 1 0 0 -7 -3 -15z m-480 -24 c-16 -16 -31
-27 -34 -24 -5 4 49 53 59 53 2 0 -9 -13 -25 -29z m3350 -16 c90 -21 168 -46
195 -62 92 -54 225 -213 277 -330 31 -69 25 -82 -6 -16 -39 80 -87 139 -181
218 -107 90 -163 119 -331 175 -70 23 -131 46 -134 52 -4 6 1 8 12 5 11 -4 86
-22 168 -42z m-5590 19 c9 -23 7 -64 -3 -64 -9 0 -21 34 -21 63 0 21 16 22 24
1z m6800 0 c20 -19 20 -35 3 -59 -30 -40 -92 11 -73 60 7 20 50 19 70 -1z
m-6840 -10 c9 -24 7 -74 -3 -74 -10 0 -31 76 -23 85 10 9 20 5 26 -11z m5264
-19 c-3 -3 -9 2 -12 12 -6 14 -5 15 5 6 7 -7 10 -15 7 -18z m-5303 -21 c8 -47
0 -53 -28 -23 l-22 24 -3 -30 c-2 -17 -8 -34 -13 -39 -13 -14 -38 23 -39 57 0
30 23 45 71 46 23 1 28 -4 34 -35z m5421 -19 c20 -19 20 -19 -48 8 -32 13 -55
26 -52 30 8 8 82 -20 100 -38z m-2633 4 c-37 -64 -222 -203 -223 -167 -1 8 -6
6 -15 -6 -8 -11 -15 -15 -15 -9 0 13 100 103 114 103 6 0 24 12 40 27 27 24
27 23 -3 -9 -62 -68 -24 -51 46 20 37 38 69 70 71 71 2 0 -5 -13 -15 -30z
m-3103 -6 c12 -28 12 -28 21 -5 5 12 16 22 24 22 9 0 14 -4 10 -9 -3 -5 -1
-12 5 -16 5 -3 10 -1 10 4 0 6 9 11 20 11 15 0 20 -7 20 -27 0 -41 -11 -51
-50 -50 -27 1 -43 10 -68 39 -19 20 -31 42 -27 48 10 17 21 12 35 -17z m3756
-165 c-14 -152 -46 -735 -46 -832 0 -21 -5 -36 -12 -36 -29 0 14 820 53 999 6
29 13 50 16 48 2 -3 -2 -83 -11 -179z m-3821 132 c8 -25 -26 -94 -48 -98 -14
-3 -15 4 -10 50 3 29 11 56 17 60 19 13 34 9 41 -12z m7701 -11 c46 -22 86
-68 111 -126 26 -63 -1 -178 -54 -225 -24 -22 -97 -48 -135 -48 -61 0 -138 50
-214 141 l-31 37 -59 -62 c-33 -33 -76 -70 -96 -80 -34 -19 -37 -19 -54 -2
-14 15 -15 19 -3 27 8 5 18 9 23 9 15 0 84 60 117 101 l32 40 -49 50 c-60 61
-116 89 -178 89 -60 0 -78 -9 -148 -78 -45 -43 -61 -53 -70 -44 -9 9 -9 17 2
36 47 88 127 139 219 139 71 0 122 -25 197 -99 l58 -56 20 29 c97 133 203 175
312 122z m-7786 -28 c0 -27 -5 -41 -16 -45 -25 -10 -44 12 -44 50 0 31 3 34
30 34 28 0 30 -2 30 -39z m330 25 c0 -15 -37 -32 -47 -22 -9 8 17 36 33 36 8
0 14 -6 14 -14z m-410 -31 c14 -41 7 -55 -25 -55 -20 0 -23 5 -22 38 1 33 10
51 29 52 3 0 12 -16 18 -35z m3140 32 c0 -2 -17 -19 -37 -38 l-38 -34 34 38
c33 34 41 42 41 34z m-1735 -25 c6 -4 16 -15 24 -24 12 -16 10 -18 -22 -18
-37 0 -59 26 -35 42 16 10 20 10 33 0z m-55 -14 c0 -10 -62 -13 -279 -13 -309
0 -298 2 -342 -70 -13 -21 -19 -25 -19 -13 0 10 16 36 36 57 43 48 34 47 362
49 188 2 242 -1 242 -10z m1800 9 c0 -2 -17 -19 -37 -38 l-38 -34 34 38 c33
34 41 42 41 34z m5033 -117 c8 -54 -8 -23 -17 35 -4 21 -8 50 -11 64 -3 14 1
8 9 -14 7 -22 16 -60 19 -85z m-8499 28 c-23 -44 -30 -20 -8 29 12 26 18 33
21 21 2 -9 -4 -32 -13 -50z m-41 -5 c8 -44 3 -53 -23 -46 -13 3 -20 14 -20 28
0 61 34 76 43 18z m197 -5 c0 -9 -24 -11 -32 -2 -3 3 -3 15 0 26 5 20 6 20 19
3 7 -11 13 -22 13 -27z m6881 19 c-10 -9 -11 -8 -5 6 3 10 9 15 12 12 3 -3 0
-11 -7 -18z m-2781 -123 c-11 -126 -36 -265 -39 -214 -1 23 -3 23 -12 6 -9
-15 -13 -16 -20 -5 -6 10 -9 5 -10 -16 0 -26 -2 -27 -9 -10 -5 11 -9 15 -9 8
-1 -6 -11 -13 -23 -15 -12 -2 -27 -12 -33 -23 -22 -44 -27 -48 -36 -34 -6 10
-9 4 -9 -18 0 -26 -4 -33 -20 -33 -15 0 -20 7 -20 26 0 15 -4 23 -10 19 -6 -4
-8 -15 -5 -26 4 -10 2 -19 -3 -19 -6 0 -13 -12 -16 -26 -5 -19 -11 -24 -26
-19 -25 8 -27 -20 -5 -90 8 -27 12 -51 10 -53 -2 -3 -16 21 -32 52 -27 55 -46
75 -36 37 3 -10 0 -28 -6 -39 -8 -15 -8 -22 2 -25 7 -3 5 -6 -5 -6 -12 -1 -18
7 -19 22 0 12 -3 17 -5 11 -3 -6 5 -45 17 -85 61 -214 55 -247 -11 -51 -24 70
-55 159 -70 197 l-27 71 91 95 c106 111 174 169 270 229 74 47 126 108 126
148 0 14 2 23 5 20 3 -3 1 -63 -5 -134z m226 55 c103 -35 236 -50 339 -38 76
9 206 40 266 64 14 5 18 -2 22 -42 23 -233 28 -331 30 -548 l2 -250 -67 0
c-38 0 -223 2 -413 3 l-345 2 0 133 c0 72 5 219 12 326 10 164 13 191 25 175
7 -9 16 -14 20 -10 4 4 1 11 -6 15 -7 5 -16 30 -19 56 -5 45 -4 47 16 36 31
-17 37 -13 16 10 -13 14 -19 37 -20 75 l-1 54 32 -20 c18 -11 59 -30 91 -41z
m3989 41 c-4 -6 -2 -16 3 -23 12 -16 27 -95 14 -82 -23 26 -36 115 -16 115 3
0 2 -5 -1 -10z m-1352 -31 c4 -16 3 -18 -9 -8 -16 13 -19 29 -5 29 5 0 11 -9
14 -21z m-3733 -229 c7 -69 14 -152 17 -185 l5 -60 -26 38 c-36 51 -50 48 -42
-8 5 -29 4 -45 -3 -45 -6 0 -12 12 -12 28 -1 19 -3 21 -6 7 -2 -11 5 -61 15
-112 l18 -92 -24 -6 c-19 -5 -22 -8 -12 -20 10 -12 10 -15 0 -15 -10 0 -9 -4
2 -17 34 -40 28 -43 -17 -9 -53 41 -85 60 -85 51 0 -4 12 -21 26 -40 25 -33
41 -95 24 -95 -5 0 -26 28 -47 61 -42 69 -52 65 -29 -10 15 -52 13 -70 -4 -28
l-9 22 0 -22 c-1 -26 -12 -35 -31 -23 -11 7 -12 22 -1 92 27 177 127 531 184
648 l32 65 7 -50 c4 -28 12 -106 18 -175z m2765 125 c34 -75 121 -350 139
-437 9 -42 19 -121 22 -177 l7 -101 -26 0 c-19 0 -27 5 -27 18 0 12 2 14 8 4
6 -8 9 0 9 20 0 18 4 51 8 72 6 29 5 37 -3 32 -7 -4 -12 -15 -12 -24 0 -20
-89 -123 -90 -105 0 7 16 30 35 52 49 53 44 63 -7 16 -41 -38 -41 -38 -13 -5
17 19 39 46 50 59 l20 25 -40 -24 -40 -23 28 30 c15 16 24 32 21 36 -4 4 -2
12 4 20 6 7 9 24 6 38 -5 19 -3 21 5 9 8 -11 11 -11 11 -2 0 7 -7 15 -15 18
-10 4 -13 14 -9 33 4 18 3 22 -4 13 -7 -11 -11 -8 -16 11 -3 14 -3 34 0 44 3
10 -2 7 -10 -7 -17 -28 -21 -15 -7 23 7 18 6 24 -4 24 -8 0 -11 -5 -8 -10 4
-6 -6 -8 -27 -3 -19 3 -37 12 -41 18 -4 7 -9 -1 -12 -18 -4 -27 -4 -26 -6 7 0
19 -8 57 -17 83 -14 41 -15 60 -5 135 6 48 11 110 11 137 1 46 1 48 16 29 9
-11 26 -42 39 -70z m2364 48 c0 -25 -1 -25 -8 -8 -5 11 -7 23 -4 28 8 14 13 7
12 -20z m-8309 -19 c13 -37 6 -104 -10 -104 -6 0 -10 17 -10 39 0 21 -3 53 -6
70 -9 43 12 40 26 -5z m1510 -15 c26 -29 42 -40 53 -36 9 3 19 2 22 -3 4 -6
-5 -10 -19 -10 -24 0 -56 -23 -56 -40 0 -5 7 -13 16 -18 12 -7 3 -11 -36 -16
-29 -4 -54 -5 -56 -3 -2 2 8 20 22 41 28 42 27 85 -4 87 -55 4 -72 -16 -62
-72 4 -22 13 -46 19 -52 6 -6 10 -22 10 -36 l-1 -26 -7 25 c-3 14 -17 43 -31
65 -14 22 -24 47 -22 55 2 8 -8 2 -22 -15 -26 -32 -27 -46 -1 -25 12 10 15 10
15 0 0 -7 12 -23 26 -36 l25 -24 -19 -28 c-33 -45 -112 -128 -112 -117 0 6 -5
3 -10 -5 -7 -11 -10 -11 -10 -2 0 14 -59 8 -92 -10 -14 -7 -18 -5 -18 10 0 10
5 23 12 30 16 16 118 16 118 0 0 -18 37 20 50 52 7 16 21 32 31 35 25 8 23 16
-11 43 -34 27 -54 21 -47 -14 2 -13 0 -21 -4 -18 -5 3 -9 -1 -9 -9 0 -18 -43
-27 -126 -27 l-63 0 -7 57 c-5 40 -3 70 7 98 13 38 16 40 51 37 44 -4 56 11
26 32 -22 16 -22 16 -2 16 12 0 29 -9 39 -20 10 -11 22 -17 27 -14 4 3 7 0 6
-8 -2 -7 4 -12 12 -10 8 2 12 0 8 -4 -4 -4 -2 -14 5 -22 10 -13 9 -14 -2 -7
-11 6 -13 4 -8 -7 5 -13 1 -14 -22 -5 -61 23 -115 -23 -95 -81 12 -34 51 -55
77 -40 11 5 26 26 34 46 8 21 29 46 46 57 24 16 32 28 32 51 0 24 4 30 20 30
13 -1 21 6 23 21 3 20 8 22 55 19 46 -3 55 -8 87 -47z m6627 29 c-3 -8 -6 -5
-6 6 -1 11 2 17 5 13 3 -3 4 -12 1 -19z m-1197 -23 c0 -5 -5 -3 -10 5 -5 8
-10 20 -10 25 0 6 5 3 10 -5 5 -8 10 -19 10 -25z m-7000 -29 c0 -30 -4 -58
-10 -61 -6 -4 -10 17 -10 54 0 34 4 61 10 61 6 0 10 -24 10 -54z m2827 22 c-3
-8 -6 -5 -6 6 -1 11 2 17 5 13 3 -3 4 -12 1 -19z m98 -16 c-13 -13 -16 -13 -9
-2 5 8 9 18 10 23 4 19 6 21 11 9 3 -8 -3 -21 -12 -30z m-3028 2 c5 -15 7 -15
15 0 18 32 38 18 38 -27 0 -50 -7 -62 -27 -45 -11 8 -17 7 -28 -8 -13 -18 -14
-17 -28 16 l-15 35 -4 -30 c-2 -25 -8 -30 -33 -33 -57 -5 -69 66 -15 83 12 4
27 2 34 -4 10 -9 15 -7 19 9 6 24 35 27 44 4z m6733 -16 c10 -6 7 -7 -10 -2
-14 3 -32 11 -40 16 -10 6 -7 7 10 2 14 -3 32 -11 40 -16z m-6923 -45 c-3 -10
-5 -2 -5 17 0 19 2 27 5 18 2 -10 2 -26 0 -35z m-74 -25 c3 -33 2 -58 -4 -58
-5 0 -9 28 -9 62 0 75 5 73 13 -4z m1426 -117 c57 -63 92 -94 112 -98 16 -3
26 -10 23 -15 -7 -11 -43 -1 -68 21 -41 35 -236 254 -236 265 0 11 20 -9 169
-173z m-229 159 c0 -5 -15 -16 -34 -24 -67 -28 -87 -101 -42 -152 18 -22 32
-28 60 -27 72 2 111 54 88 117 l-11 31 24 -30 c36 -44 33 -89 -9 -131 -29 -29
-41 -34 -82 -34 -61 0 -105 25 -127 73 -30 63 -15 124 40 166 29 21 93 29 93
11z m7387 -62 c-3 -7 -5 -2 -5 12 0 14 2 19 5 13 2 -7 2 -19 0 -25z m-1910
-16 c82 -32 233 -122 233 -138 0 -3 -5 -2 -12 2 -7 4 -8 3 -4 -4 4 -6 12 -9
19 -6 20 7 144 -118 167 -167 11 -24 20 -39 21 -34 0 6 5 -3 10 -19 13 -47 6
-40 -31 27 -39 73 -97 141 -104 124 -3 -8 -5 -6 -6 3 0 8 -12 23 -26 34 l-26
19 18 -29 c12 -18 -9 -4 -54 38 -69 63 -96 79 -292 170 -66 31 -11 18 87 -20z
m-4624 21 c-7 -2 -21 -2 -30 0 -10 3 -4 5 12 5 17 0 24 -2 18 -5z m4912 -13
c192 -6 250 -11 290 -25 63 -23 127 -66 159 -108 27 -36 56 -115 56 -153 0
-37 -16 -21 -23 23 -18 112 -121 185 -322 227 -24 5 -19 0 21 -22 95 -53 140
-90 165 -137 6 -11 -3 -4 -19 16 -37 43 -128 93 -208 114 -32 8 -117 22 -189
31 -78 10 -146 24 -170 35 -22 11 -31 16 -20 13 11 -4 128 -10 260 -14z m58
13 c-7 -2 -21 -2 -30 0 -10 3 -4 5 12 5 17 0 24 -2 18 -5z m1907 -55 c0 -53
-66 -118 -120 -118 -31 0 -73 27 -64 41 3 6 13 8 21 5 21 -8 99 28 112 52 6
12 11 35 11 53 l0 32 20 -23 c11 -13 20 -32 20 -42z m-6998 -30 c-8 -8 -9 -4
-5 13 4 13 8 18 11 10 2 -7 -1 -18 -6 -23z m6486 -1 c3 -15 -7 -17 -91 -17
-179 0 -221 27 -49 33 141 4 136 4 140 -16z m-5042 -107 c-14 -52 -25 -86 -25
-75 -1 39 40 198 46 179 2 -5 -8 -52 -21 -104z m5123 30 c-6 -29 -9 -90 -7
-134 4 -72 4 -77 -7 -46 -11 32 -12 33 -23 15 -9 -16 -14 -17 -20 -7 -7 10
-18 -5 -41 -52 -17 -36 -37 -66 -43 -66 -16 0 -48 31 -48 47 0 7 -4 13 -10 13
-16 0 -12 27 10 70 13 26 16 41 9 46 -6 3 -8 17 -5 30 7 27 -14 33 -33 10 -8
-10 -26 -12 -59 -9 -54 6 -57 7 -49 28 5 12 23 15 85 15 94 0 177 22 193 52 9
17 13 18 20 7 7 -12 9 -11 9 2 0 15 21 42 27 35 2 -2 -2 -27 -8 -56z m-2202
28 c-3 -8 -6 -5 -6 6 -1 11 2 17 5 13 3 -3 4 -12 1 -19z m2127 -7 c19 -7 19
-8 0 -15 -10 -5 -72 -11 -136 -13 -115 -6 -118 -5 -118 16 0 20 4 21 118 20
64 0 126 -4 136 -8z m-6794 -61 c-8 -6 -24 -10 -35 -9 -15 0 -13 3 10 13 32
14 49 11 25 -4z m-264 -67 c2 -56 8 -79 39 -133 8 -13 12 -26 10 -28 -7 -7
-125 51 -119 59 2 4 12 6 22 3 14 -5 14 -4 3 4 -10 7 -21 7 -35 0 -19 -10 -20
-10 -7 6 8 9 10 16 5 15 -49 -9 -46 3 16 66 35 36 65 65 65 65 0 0 1 -26 1
-57z m5034 33 c0 -3 -4 -8 -10 -11 -5 -3 -10 -1 -10 4 0 6 5 11 10 11 6 0 10
-2 10 -4z m-4719 -56 c10 -6 19 -17 19 -25 0 -14 -29 -35 -49 -35 -15 0 -34
39 -27 56 6 17 30 18 57 4z m666 -4 c1 -1 -1 -12 -4 -25 l-6 -24 -281 7 c-154
4 -283 9 -285 12 -25 25 174 49 204 24 10 -8 15 -9 15 -1 0 14 339 21 357 7z
m5896 -13 c-4 -10 -11 -21 -17 -25 -6 -4 -144 -8 -307 -8 -310 0 -309 0 -309
41 0 5 132 9 320 9 300 0 319 -1 313 -17z m-1205 -64 c12 -26 21 -37 25 -28 4
9 6 7 6 -6 1 -11 8 -38 17 -60 l15 -40 -5 35 c-2 19 -8 44 -12 55 -5 15 -4 17
5 9 18 -17 34 -150 27 -222 -4 -35 -15 -84 -25 -110 -10 -26 -21 -56 -25 -66
-3 -10 -9 -17 -11 -14 -3 3 4 26 15 52 11 26 20 53 19 59 0 7 -5 1 -11 -13
-25 -57 -36 -93 -32 -105 9 -22 -99 -149 -182 -215 -19 -16 -16 -11 58 85 34
45 79 139 104 218 16 54 35 299 22 290 -5 -2 -8 7 -8 20 0 14 -7 41 -15 61
-21 50 -10 46 13 -5z m19 16 c0 -8 -4 -12 -9 -9 -5 3 -6 10 -3 15 9 13 12 11
12 -6z m2168 -84 c38 -22 67 -73 68 -119 1 -38 -47 -127 -63 -117 -5 3 -10 0
-12 -6 -2 -6 -24 -13 -48 -16 -50 -5 -103 18 -128 55 -23 34 8 38 53 8 46 -32
81 -33 112 -5 l22 22 -4 -22 c-4 -19 -2 -21 11 -10 9 7 11 16 6 21 -5 5 -7 29
-4 53 4 39 1 48 -26 75 -19 18 -41 30 -57 30 -28 0 -66 -16 -76 -33 -9 -13
-38 -1 -46 19 -8 21 15 42 63 59 43 16 84 11 129 -14z m-8205 4 c25 -13 50
-42 50 -58 0 -13 -47 -14 -71 -1 -59 30 -115 11 -139 -46 -13 -32 -17 -34 -39
-21 -10 6 -12 19 -7 43 6 34 31 64 71 86 29 16 101 14 135 -3z m7244 9 c33
-13 14 -23 -39 -23 -40 1 -55 5 -55 15 0 15 63 20 94 8z m-5047 -76 c-3 -8 -6
-5 -6 6 -1 11 2 17 5 13 3 -3 4 -12 1 -19z m4317 -56 c288 -138 399 -233 436
-371 6 -24 8 -55 5 -70 -6 -23 -9 -21 -24 29 -21 68 -39 102 -50 96 -4 -3 -19
7 -32 22 l-24 27 28 -24 c15 -14 27 -20 27 -14 0 15 -46 54 -54 46 -4 -5 -6
-2 -4 6 5 22 -137 135 -242 192 -189 104 -215 119 -201 119 7 0 68 -26 135
-58z m1520 22 c7 -18 -23 -54 -43 -54 -32 0 -41 48 -16 74 13 13 20 13 35 3
11 -6 22 -17 24 -23z m-7956 17 c8 -5 12 -21 10 -37 -4 -41 -43 -46 -60 -9
-11 24 -10 29 7 41 22 16 25 17 43 5z m1207 -16 c0 -20 -8 -20 -581 -23 -574
-2 -582 -2 -587 18 -5 19 1 20 286 22 161 2 425 3 587 3 288 0 295 0 295 -20z
m6654 9 c2 -2 1 -10 -2 -19 -6 -13 -79 -15 -652 -15 -636 0 -645 0 -645 20 0
19 8 20 183 22 214 3 1110 -3 1116 -8z m-1635 -38 c-3 -15 -8 -25 -11 -23 -2
3 -1 17 3 31 3 15 8 25 11 23 2 -3 1 -17 -3 -31z m-1414 0 c8 0 38 3 65 7 l50
7 -40 -19 c-22 -10 -61 -22 -87 -25 -47 -7 -48 -7 -48 19 0 23 3 25 23 19 12
-4 29 -8 37 -8z m1630 -96 c77 -24 81 -24 56 -5 -11 8 -17 15 -13 15 13 0 111
-52 147 -78 48 -35 61 -49 25 -27 -19 12 -5 -8 41 -56 85 -91 124 -163 124
-232 0 -29 -4 -46 -10 -42 -5 3 -10 20 -10 36 0 99 -203 303 -384 385 -63 28
-59 29 24 4z m-795 -24 c41 -18 65 -61 65 -118 0 -24 -27 -254 -60 -513 -55
-427 -81 -643 -125 -1048 -8 -75 -15 -144 -15 -152 0 -11 -12 -15 -47 -14 -42
0 -45 2 -26 11 13 6 25 18 28 27 3 9 21 156 40 326 19 170 55 463 79 650 56
427 69 545 62 553 -3 3 -6 -3 -6 -14 -1 -18 -1 -18 -18 1 -23 27 -77 22 -87
-8 -7 -22 -7 -22 -14 2 -6 23 -8 21 -21 -20 -8 -24 -13 -50 -12 -58 2 -7 -1
-10 -6 -7 -11 7 -46 -101 -68 -208 -56 -275 -91 -491 -148 -921 -32 -238 -36
-258 -43 -251 -3 3 -11 2 -17 -3 -18 -14 -116 -39 -185 -46 -60 -7 -64 -6 -57
11 4 11 9 28 11 39 1 11 23 126 48 255 101 520 117 600 137 715 28 162 27 158
34 175 4 9 37 24 74 34 37 10 81 24 99 32 32 14 37 26 49 128 2 17 7 45 10 61
7 31 -9 26 -19 -5 -2 -8 -3 -3 -1 13 2 15 -1 27 -6 27 -6 0 -10 -5 -10 -11 0
-6 -7 -4 -15 5 -8 8 -15 22 -15 30 0 20 -55 22 -64 4 -5 -10 -7 -10 -12 0 -3
6 -23 12 -45 12 -36 0 -40 -2 -37 -22 2 -17 -2 -23 -17 -23 -25 0 -65 -40 -65
-65 0 -11 -5 -20 -11 -20 -13 0 12 -26 32 -33 8 -2 2 -3 -13 -1 -39 5 -35 -4
10 -23 45 -19 57 -13 -170 -85 -92 -29 -163 -55 -158 -58 5 -3 -6 -6 -26 -6
-19 0 -38 -4 -42 -10 -4 -5 -27 -16 -52 -24 -25 -7 -52 -20 -61 -27 -8 -7 -21
-13 -27 -13 -16 0 -15 -17 1 -23 6 -3 -1 -4 -18 -4 -23 2 -30 -2 -29 -15 1
-10 -3 -18 -10 -18 -6 0 -19 -9 -29 -20 -9 -11 -24 -20 -33 -20 -9 0 -27 -9
-42 -20 -19 -16 -27 -18 -33 -8 -4 7 -3 16 4 21 8 6 8 7 -3 4 -8 -2 -15 -10
-15 -18 0 -8 -11 -19 -25 -26 -14 -6 -19 -12 -12 -12 6 -1 12 -9 12 -18 0 -15
-2 -16 -10 -3 -12 18 -13 -32 -4 -104 6 -37 9 -44 20 -35 8 6 14 9 14 6 0 -7
113 46 190 90 30 17 71 36 90 42 19 6 73 33 119 61 46 27 87 50 91 50 7 0 17
-211 23 -459 l2 -64 -80 -59 c-148 -108 -424 -288 -441 -288 -9 0 -63 30 -118
68 -56 37 -109 68 -120 68 -10 1 -73 -26 -140 -60 -125 -63 -147 -69 -181 -47
-11 6 -13 10 -5 8 8 -2 22 1 30 8 18 16 263 156 343 196 42 22 61 38 70 62
l14 32 1 -30 c0 -27 -7 -34 -81 -76 -45 -26 -143 -81 -217 -123 -80 -45 -126
-76 -113 -76 19 0 285 131 430 211 l43 24 0 260 0 260 -178 102 c-97 56 -199
113 -227 128 -27 15 -54 31 -58 35 -5 4 -43 -11 -85 -35 -43 -23 -150 -81
-239 -129 l-163 -87 -1 -255 c-1 -140 -2 -260 -3 -266 -1 -7 68 -49 152 -93
84 -44 148 -81 143 -83 -5 -2 -31 8 -58 22 l-49 24 -32 -20 c-18 -11 -29 -25
-25 -31 3 -6 1 -7 -5 -3 -6 4 -50 -18 -96 -47 l-85 -54 25 -24 c14 -13 40 -42
57 -63 41 -51 5 -34 -44 22 -19 21 -39 41 -46 45 -11 7 -133 -67 -228 -140
l-49 -38 -278 -3 c-153 -2 -302 1 -331 7 -31 6 -53 6 -55 0 -2 -5 -52 -9 -111
-9 l-108 0 -12 138 c-6 75 -18 182 -26 237 -8 55 -14 104 -15 108 0 5 37 7 83
5 45 -1 102 1 126 6 31 6 42 5 37 -3 -4 -6 -3 -11 3 -11 5 0 9 9 8 21 -1 15
-6 19 -22 14 -47 -13 -105 -17 -105 -8 0 6 -3 25 -6 42 l-6 31 61 0 c34 0 61
4 61 10 0 6 -30 10 -70 10 l-70 0 0 30 c0 17 -5 30 -11 30 -7 0 -8 -11 -4 -29
6 -29 5 -30 -37 -34 l-43 -4 48 -1 c43 -2 48 -4 42 -21 -3 -11 -1 -22 5 -26 5
-3 10 -15 10 -26 0 -16 -7 -19 -55 -19 -54 0 -54 0 -61 35 -3 19 -4 44 -1 55
3 10 1 20 -4 22 -4 2 -9 35 -10 73 0 39 -14 178 -30 310 -41 338 -79 702 -79
754 0 36 6 49 34 77 l34 34 1781 0 c1517 0 1787 -2 1816 -14z m490 -41 c-7
-25 -19 -54 -27 -63 -33 -43 -102 -112 -106 -107 -3 3 9 19 26 36 18 18 35 43
38 56 5 18 9 21 15 12 8 -13 19 7 50 89 15 40 18 23 4 -23z m1173 22 c7 -5 38
-10 70 -10 45 0 48 -1 17 -5 -33 -3 -36 -6 -20 -13 13 -5 4 -6 -24 -2 -31 4
-45 2 -52 -8 -6 -11 -53 -15 -224 -17 -216 -4 -264 0 -235 18 13 8 12 10 -3
10 -10 0 -15 5 -12 10 4 6 85 10 209 10 165 0 206 3 216 14 11 15 33 12 58 -7z
m-5994 -16 c4 -5 3 -16 0 -25 -5 -14 -43 -16 -338 -15 -182 1 -344 5 -361 9
l-30 8 28 1 c43 2 32 19 -15 24 -24 2 127 4 334 5 218 1 379 -2 382 -7z m6029
-28 c-7 -2 -19 -2 -25 0 -7 3 -2 5 12 5 14 0 19 -2 13 -5z m-880 -28 c20 -14
37 -28 37 -31 0 -6 -67 32 -84 48 -22 19 12 7 47 -17z m-6299 -62 c39 -41 63
-93 43 -93 -7 -1 -23 -24 -37 -53 -20 -42 -34 -57 -71 -75 -39 -19 -51 -21
-75 -12 -102 39 -122 166 -37 240 28 25 42 30 87 30 49 0 57 -3 90 -37z m7704
17 c18 -11 30 -25 27 -30 -3 -6 0 -10 8 -10 17 0 37 -41 32 -66 -1 -11 -8 -18
-14 -16 -6 1 -11 -2 -11 -8 0 -5 12 -10 26 -10 l27 0 -26 -20 c-36 -29 -51
-26 -42 8 4 15 8 33 8 40 0 6 6 12 14 12 7 0 13 4 13 9 0 6 -9 8 -20 6 -11 -2
-20 -1 -21 3 0 4 -2 17 -3 30 -3 25 -36 65 -36 44 0 -7 5 -12 10 -12 6 0 10
-5 10 -12 0 -7 -6 -6 -17 4 -11 9 -26 12 -38 8 -11 -4 -29 -10 -40 -14 -11 -4
-29 -20 -40 -37 -11 -16 -23 -29 -27 -29 -5 0 -8 -8 -8 -17 0 -13 9 -9 37 18
l38 34 -30 -33 -30 -34 30 -24 c17 -13 36 -22 43 -19 6 2 12 0 12 -5 0 -6 9
-10 20 -10 11 0 20 -7 20 -15 0 -8 5 -15 11 -15 5 0 7 -4 4 -10 -3 -5 -20 -10
-36 -10 -50 0 -94 31 -122 85 -13 26 -13 36 -2 68 16 48 30 64 74 87 46 24 59
24 99 0z m-1479 1 c11 -7 8 -32 -14 -142 -72 -358 -147 -562 -283 -769 -49
-73 -57 -82 -60 -60 -10 73 -95 266 -112 255 -5 -3 -12 0 -16 6 -4 8 -3 9 4 5
28 -17 8 17 -40 67 -38 39 -68 60 -105 73 -37 13 -53 24 -53 36 0 11 8 18 20
18 32 0 128 -40 160 -67 32 -26 99 -157 134 -262 l22 -63 57 109 c31 60 76
159 101 219 48 120 121 400 132 504 4 36 9 68 11 73 6 9 25 9 42 -2z m142 -8
c13 -16 12 -17 -3 -4 -10 7 -18 15 -18 17 0 8 8 3 21 -13z m143 -157 c21 -45
20 -88 -4 -142 -17 -36 -31 -49 -80 -74 -50 -25 -71 -30 -134 -30 -41 0 -78 5
-81 10 -4 6 18 10 58 10 72 0 154 21 188 49 18 14 23 31 27 79 7 92 -3 124
-53 180 -25 28 -45 53 -45 57 0 15 109 -108 124 -139z m-5130 112 c-3 -5 -12
-4 -20 3 -19 16 -18 18 6 12 11 -3 17 -9 14 -15z m46 -3 c20 -24 6 -28 -15 -5
-10 11 -13 20 -8 20 6 0 16 -7 23 -15z m4919 -24 c-8 -2 -17 -8 -20 -14 -4 -5
-8 4 -11 21 -4 30 -4 30 20 14 18 -11 21 -17 11 -21z m1339 13 c24 -17 30 -59
9 -67 -7 -3 -26 -3 -41 0 -20 4 -26 11 -24 27 2 11 10 27 18 34 13 11 11 12
-9 6 -16 -4 -21 -3 -17 5 10 16 38 14 64 -5z m-6178 -60 c0 -10 -18 -3 -38 17
-12 11 -20 25 -16 30 5 9 54 -34 54 -47z m4320 46 c0 -5 -5 -10 -12 -10 -6 0
-19 -6 -28 -12 -9 -7 -5 -3 8 10 26 24 32 27 32 12z m1792 -35 c-4 -22 -7 -24
-20 -13 -12 10 -14 10 -8 1 4 -7 2 -13 -3 -13 -16 0 -14 11 6 32 22 25 31 23
25 -7z m-1208 -16 c11 -10 18 -20 15 -23 -7 -7 -119 -10 -119 -3 0 4 0 14 0
22 0 19 38 35 65 28 11 -3 29 -13 39 -24z m-5241 -1 c4 -12 1 -26 -6 -31 -14
-10 -1031 -2 -1064 8 -90 28 110 41 628 43 l437 2 5 -22z m6282 7 c65 -7 70
-9 61 -23 -7 -12 -129 -16 -485 -17 l-285 0 -7 28 -8 29 332 -5 c183 -3 359
-8 392 -12z m-855 -89 c0 -6 -7 -1 -15 10 -19 26 -19 10 1 -33 24 -49 14 -165
-20 -238 -27 -60 -66 -105 -91 -105 -12 0 -8 8 13 25 56 47 97 225 74 323 -6
25 -6 42 -1 42 5 0 3 13 -6 30 -25 48 -17 48 15 0 16 -25 30 -49 30 -54z
m-6559 30 c-12 -18 -29 -40 -38 -47 -10 -8 -5 2 9 21 14 19 29 46 33 60 5 14
10 19 12 13 3 -7 -5 -28 -16 -47z m5086 -2 c-3 -3 -12 -4 -19 -1 -8 3 -5 6 6
6 11 1 17 -2 13 -5z m1319 -59 c-11 -55 -62 -103 -131 -120 -68 -17 -95 -19
-95 -6 0 5 21 12 47 16 26 4 60 13 74 20 41 22 87 81 95 122 5 24 9 31 12 20
2 -11 1 -34 -2 -52z m202 -115 c-5 -60 -34 -140 -56 -154 -5 -3 0 13 11 36 22
45 30 178 14 228 -6 18 -3 16 13 -10 19 -29 22 -45 18 -100z m-1413 100 c3 -5
1 -10 -4 -10 -6 0 -11 5 -11 10 0 6 2 10 4 10 3 0 8 -4 11 -10z m-5679 -30
c33 -13 85 -56 100 -83 21 -38 -15 -131 -68 -170 -39 -29 -115 -33 -155 -8
-17 11 -37 30 -44 43 -9 17 -4 14 18 -9 26 -28 38 -33 77 -33 96 0 146 42 146
121 0 118 -135 169 -217 82 -39 -41 -43 -34 -8 13 35 46 98 64 151 44z m5431
4 c-3 -3 -12 -4 -19 -1 -8 3 -5 6 6 6 11 1 17 -2 13 -5z m3155 -4 c38 -11 98
-69 98 -95 0 -9 9 -15 22 -15 19 0 20 -2 6 -12 -9 -7 -19 -33 -22 -57 -13 -87
-61 -130 -156 -139 -34 -3 -50 0 -66 14 -11 11 -15 16 -9 12 15 -9 91 -3 143
11 38 11 46 18 64 58 18 40 19 51 8 87 -20 69 -34 90 -72 109 -30 15 -44 16
-76 8 -56 -15 -84 -50 -90 -111 -5 -56 8 -79 61 -107 50 -25 129 19 156 87 10
25 10 25 10 2 2 -65 -57 -113 -141 -116 -44 -1 -53 3 -79 32 -26 29 -29 39
-29 100 0 62 3 71 29 96 25 24 65 43 96 45 6 1 27 -4 47 -9z m-8583 -45 c50
-25 67 -114 30 -154 -26 -27 -60 -41 -104 -41 -47 0 -85 46 -85 103 1 85 82
132 159 92z m8595 5 c36 -13 59 -61 45 -97 -13 -35 -46 -71 -81 -89 -73 -38
-143 81 -92 154 27 39 78 51 128 32z m-6936 -57 l3 -23 -770 0 c-760 0 -771 0
-771 20 0 18 8 20 108 23 59 1 404 3 767 2 l660 0 3 -22z m6741 -23 c-1 -25
-4 -35 -6 -22 l-4 22 -645 0 c-618 0 -644 1 -644 18 0 10 3 22 8 26 4 5 296 7
649 5 l643 -4 -1 -45z m-8582 -12 c-3 -7 -5 -2 -5 12 0 14 2 19 5 13 2 -7 2
-19 0 -25z m7148 0 c-15 -69 -64 -138 -97 -138 -15 0 -12 6 15 30 19 16 45 55
58 85 13 30 25 55 27 55 2 0 0 -15 -3 -32z m-775 -20 c0 -11 -5 -16 -11 -13
-6 4 -8 13 -5 20 2 7 -1 19 -7 26 -10 11 -9 11 6 0 9 -7 17 -22 17 -33z
m-6373 -30 c-3 -7 -5 -2 -5 12 0 14 2 19 5 13 2 -7 2 -19 0 -25z m7087 17 c-7
-18 -94 -89 -94 -77 0 9 87 92 96 92 2 0 1 -7 -2 -15z m-5734 -68 c0 -4 -10
-12 -22 -17 -23 -9 35 -12 253 -14 73 -1 78 -3 130 -42 64 -49 244 -225 259
-254 9 -17 8 -20 -8 -20 -11 0 -59 37 -108 83 -49 45 -113 104 -143 130 l-53
47 -467 1 c-559 2 -696 8 -696 29 0 15 62 18 668 29 71 1 77 3 77 22 0 19 4
20 40 14 32 -5 41 -3 46 10 5 13 8 14 15 3 5 -7 9 -17 9 -21z m3099 -39 c155
-88 235 -137 268 -163 24 -20 25 -23 15 -85 l-9 -65 -2 68 c0 37 -5 67 -9 67
-5 0 -95 49 -200 109 l-192 110 -62 -38 c-35 -20 -122 -71 -195 -112 -84 -47
-134 -81 -137 -94 -10 -34 -7 -402 3 -429 6 -14 34 -39 68 -59 32 -19 108 -65
168 -102 61 -37 115 -68 122 -69 20 -3 28 -16 9 -16 -9 0 -45 17 -79 39 -34
21 -118 69 -187 106 -69 37 -128 73 -132 79 -5 6 -7 117 -5 246 l2 235 95 56
c114 67 323 187 329 188 2 1 60 -31 130 -71z m1951 37 c0 -7 4 -15 9 -17 6 -1
12 -21 15 -43 3 -22 8 -58 11 -80 4 -22 4 -37 1 -34 -3 3 -11 32 -17 65 -5 32
-17 76 -25 97 -8 21 -10 36 -4 32 5 -3 10 -12 10 -20z m-4148 -47 c-7 -7 -12
-8 -12 -2 0 6 3 14 7 17 3 4 9 5 12 2 2 -3 -1 -11 -7 -17z m5698 11 c168 -1
292 -5 275 -9 l-30 -8 27 -1 c15 0 29 -5 32 -10 3 -5 -233 -12 -544 -16 -303
-4 -550 -11 -550 -15 0 -14 -81 -47 -157 -65 -68 -16 -76 -21 -167 -106 -65
-60 -101 -87 -111 -83 -19 8 -26 -2 117 153 54 58 98 111 98 118 0 9 14 8 53
-4 63 -19 128 -7 185 33 l37 26 215 -6 c118 -3 352 -6 520 -7z m-5517 -13 c3
-8 15 -111 26 -228 12 -117 25 -249 31 -293 15 -120 15 -123 -17 -119 -26 4
-25 3 3 -6 35 -11 36 -17 50 -157 4 -42 3 -73 -2 -73 -13 0 -55 30 -77 55 -14
15 -13 12 2 -12 12 -17 34 -42 50 -56 18 -15 32 -39 36 -61 l7 -36 -28 10
c-68 26 -94 51 -129 125 -19 41 -35 81 -35 90 0 8 -9 24 -20 35 -11 11 -22 32
-25 47 -3 16 -10 47 -15 71 -6 23 -10 57 -10 75 0 17 -7 41 -15 51 -24 32 -17
80 25 167 l40 83 -6 106 c-6 92 -5 108 10 123 22 21 91 23 99 3z m4610 -13
c-7 -2 -21 -2 -30 0 -10 3 -4 5 12 5 17 0 24 -2 18 -5z m-2658 -54 c30 -23 55
-44 55 -46 0 -2 -5 -1 -12 3 -7 5 -8 3 -4 -5 5 -7 10 -10 13 -7 6 6 83 -31 83
-41 0 -8 -33 -32 -44 -33 -5 0 -1 9 9 20 27 29 3 24 -25 -5 -27 -28 -130 -88
-130 -75 0 4 -24 20 -52 35 -29 15 -65 36 -80 47 -16 11 -28 16 -28 11 0 -5
37 -33 83 -64 l83 -56 63 44 c35 25 65 42 68 40 2 -3 -29 -30 -69 -60 l-73
-56 -30 28 c-16 16 -55 46 -86 69 l-56 40 -28 -30 c-25 -26 -34 -29 -68 -25
-58 8 -64 22 -10 25 62 2 83 10 83 30 1 9 27 34 58 54 31 21 71 51 87 67 17
16 35 29 42 30 7 1 37 -18 68 -40z m-3905 -17 c0 -5 -13 -21 -30 -37 -35 -33
-39 -26 -9 16 19 28 39 38 39 21z m730 -31 c13 -20 17 -32 10 -36 -17 -10 -62
4 -54 16 4 6 1 15 -6 19 -15 9 -5 30 15 30 7 0 23 -13 35 -29z m7065 -2 c26
-23 33 -35 25 -44 -13 -15 -119 -49 -128 -41 -8 9 45 116 58 116 5 0 25 -14
45 -31z m-8011 -28 c19 -21 26 -72 11 -77 -16 -6 -66 79 -52 88 18 11 22 10
41 -11z m123 -3 c-3 -8 -6 -5 -6 6 -1 11 2 17 5 13 3 -3 4 -12 1 -19z m4467
-4 c3 -8 2 -12 -4 -9 -6 3 -10 10 -10 16 0 14 7 11 14 -7z m1556 -46 c24 -46
60 -144 60 -162 -1 -18 -28 35 -46 89 -9 28 -20 55 -24 60 -8 11 -20 55 -15
55 2 0 13 -19 25 -42z m1305 4 l40 -10 -45 -2 c-182 -10 -206 -9 -207 12 -2
19 3 20 85 15 48 -3 105 -10 127 -15z m-7545 -2 c0 -5 -4 -10 -10 -10 -5 0
-10 5 -10 10 0 6 5 10 10 10 6 0 10 -4 10 -10z m4495 1 c-12 -20 -94 -43 -122
-36 -15 5 -33 7 -40 6 -6 -1 -15 4 -19 10 -5 9 10 10 57 5 45 -4 73 -2 94 8
38 18 37 18 30 7z m1600 -2 c4 -6 14 -8 22 -5 8 3 12 2 9 -3 -3 -5 1 -12 10
-15 10 -4 13 -2 9 7 -4 6 16 -11 44 -40 35 -36 54 -65 63 -96 6 -25 15 -44 20
-41 4 3 8 -6 8 -20 0 -13 2 -33 5 -43 3 -10 -6 6 -20 36 -34 72 -66 114 -126
161 -27 22 -49 42 -48 46 0 4 -5 11 -13 15 -9 6 -9 9 -1 9 6 0 15 -5 18 -11z
m1678 4 c-7 -2 -21 -2 -30 0 -10 3 -4 5 12 5 17 0 24 -2 18 -5z m-531 -40 c34
-33 35 -43 3 -73 l-24 -23 -42 27 -41 28 33 34 c18 19 35 34 38 34 3 0 18 -12
33 -27z m440 20 c-6 -2 -10 -9 -7 -14 4 -5 -1 -6 -10 -3 -9 4 -15 2 -13 -4 2
-5 0 -10 -4 -11 -28 -4 -29 2 -3 19 17 11 35 20 40 19 6 0 4 -3 -3 -6z m48
-18 c-7 -8 -18 -15 -24 -14 -6 0 -5 3 3 6 11 5 11 7 0 15 -11 8 -10 9 4 4 9
-3 17 0 17 6 0 6 3 8 6 5 4 -4 1 -13 -6 -22z m-7743 -17 c-3 -7 -5 -2 -5 12 0
14 2 19 5 13 2 -7 2 -19 0 -25z m3968 -5 c-33 -21 -64 -38 -70 -38 -5 0 -12
-11 -16 -25 -9 -34 -10 -202 -1 -216 4 -6 30 -23 57 -37 28 -13 87 -48 133
-76 46 -28 88 -51 93 -51 5 0 32 15 61 33 29 19 85 51 125 71 101 53 102 54
103 171 1 55 1 106 1 113 -1 7 -17 22 -36 34 -42 24 -40 37 2 15 15 -9 36 -18
45 -21 14 -4 15 -10 7 -38 -5 -18 -9 -82 -9 -141 0 -63 -4 -106 -9 -103 -5 4
-11 2 -13 -2 -1 -4 -39 -27 -83 -51 -44 -23 -105 -59 -135 -80 l-55 -36 -44
29 c-25 16 -92 54 -150 83 -92 47 -107 52 -117 38 -14 -19 -28 -20 -20 0 3 8
6 78 7 155 1 124 3 140 18 140 9 0 41 15 71 34 30 19 64 34 75 35 11 1 -6 -15
-40 -36z m-4115 -7 c0 -24 -5 -35 -19 -39 -46 -12 -72 45 -28 63 39 16 47 12
47 -24z m47 12 c-3 -8 -6 -5 -6 6 -1 11 2 17 5 13 3 -3 4 -12 1 -19z m4190
-36 c33 -27 52 -51 60 -78 14 -48 9 -55 -18 -21 -25 33 -49 34 -78 3 l-22 -24
58 -36 c31 -20 68 -36 81 -36 27 0 132 56 132 71 0 5 7 9 15 9 34 0 11 -28
-50 -59 -83 -43 -129 -43 -193 -2 -63 40 -115 61 -152 61 -25 0 -30 4 -30 23
0 32 102 127 136 127 7 0 34 -17 61 -38z m258 13 c25 -21 28 -27 15 -35 -8 -5
-19 -10 -25 -10 -5 0 -4 4 4 9 14 9 7 31 -10 31 -6 0 -7 -4 -4 -10 3 -5 1 -10
-4 -10 -6 0 -11 6 -12 13 0 6 -4 1 -10 -11 -5 -13 -7 -28 -4 -32 3 -5 0 -12
-6 -16 -8 -5 -9 -3 -4 6 5 8 4 11 -3 6 -6 -4 -9 -13 -6 -21 4 -8 11 -12 17 -8
6 4 7 1 2 -6 -5 -9 -13 -7 -29 8 l-22 21 -24 -25 c-27 -29 -50 -33 -49 -7 1
24 89 96 102 83 7 -7 6 -16 -3 -28 -13 -17 -13 -17 5 -1 14 13 16 20 7 31 -9
10 -9 16 0 25 17 17 29 14 63 -13z m-4608 -7 c-3 -8 -6 -5 -6 6 -1 11 2 17 5
13 3 -3 4 -12 1 -19z m6340 -10 c119 -58 183 -145 190 -258 4 -70 -9 -67 -21
5 -16 87 -106 189 -222 252 -80 44 -36 45 53 1z m-6393 7 c14 -37 -29 -74 -64
-55 -11 6 -20 20 -20 31 0 32 72 53 84 24z m7744 -30 c20 -19 44 -35 54 -35
10 0 18 -5 18 -11 0 -5 -5 -7 -12 -3 -7 4 -8 3 -4 -4 9 -15 36 -16 36 -2 0 6
5 10 10 10 7 0 7 -6 0 -20 -6 -11 -7 -20 -3 -20 7 0 -34 -23 -111 -62 -47 -24
-78 -18 -119 23 -26 26 -29 35 -24 71 3 25 16 51 34 70 36 37 72 32 121 -17z
m-7488 25 c0 -5 -7 -10 -15 -10 -8 0 -15 5 -15 10 0 6 7 10 15 10 8 0 15 -4
15 -10z m150 -15 c-7 -9 -15 -13 -18 -10 -3 2 1 11 8 20 7 9 15 13 18 10 3 -2
-1 -11 -8 -20z m-512 -10 c19 -41 15 -55 -14 -55 -22 0 -25 3 -20 23 3 12 6
30 6 40 0 25 15 21 28 -8z m7912 9 c23 -14 23 -15 3 -11 -12 3 -23 1 -25 -4
-2 -4 -14 1 -28 11 l-25 20 25 -1 c14 0 36 -7 50 -15z m-3053 -47 c-7 -21 -26
-19 -22 3 4 19 2 20 -12 8 -15 -11 -16 -11 -10 6 5 13 3 17 -7 13 -10 -4 -13
-1 -9 8 4 12 10 11 35 -6 16 -12 27 -26 25 -32z m-4917 23 c11 -21 5 -44 -10
-35 -4 3 -10 -2 -14 -10 -11 -29 -26 -15 -26 25 0 33 3 40 20 40 10 0 24 -9
30 -20z m-72 -33 c2 -18 -3 -29 -20 -38 -13 -8 -26 -13 -30 -14 -3 0 -10 -4
-14 -8 -4 -4 -14 3 -21 15 l-12 23 -1 -25 c0 -30 -20 -66 -20 -38 0 26 -21 33
-27 9 -7 -28 -21 -27 -29 3 -8 34 -2 57 19 70 14 9 20 7 29 -8 10 -17 11 -17
22 5 13 27 42 33 38 7 -1 -9 2 -19 8 -23 5 -3 10 -1 10 5 0 6 5 8 10 5 6 -3
10 -1 10 4 0 6 -5 11 -11 11 -8 0 -7 5 1 15 18 21 34 14 38 -18z m1510 -3 c17
-3 22 -11 22 -34 l0 -30 -109 0 c-118 0 -137 8 -126 52 6 22 9 23 98 20 51 -1
102 -5 115 -8z m987 -85 c75 -98 120 -167 112 -175 -7 -7 -143 148 -162 185
l-16 31 -227 1 c-345 2 -612 13 -615 24 -3 14 164 21 533 23 l305 1 70 -90z
m5263 85 c12 -4 22 -10 22 -14 0 -16 -57 -20 -388 -27 l-343 -6 -37 -51 c-62
-84 -112 -139 -112 -121 0 30 28 80 75 135 25 30 53 63 61 73 13 16 42 17 356
17 189 0 353 -3 366 -6z m-2731 -36 c-3 -7 -5 -2 -5 12 0 14 2 19 5 13 2 -7 2
-19 0 -25z m1524 10 c142 -150 146 -360 11 -510 l-37 -41 41 21 c55 28 116 99
142 164 18 47 21 49 21 23 1 -43 -40 -125 -81 -161 -45 -39 -111 -71 -166 -80
-42 -7 -42 -6 -37 22 2 16 6 51 9 78 4 35 12 53 31 68 14 11 25 28 25 39 0 10
5 19 10 19 6 0 10 12 9 28 0 23 -1 24 -8 7 -7 -17 -9 -15 -13 13 -2 18 -4 55
-4 81 1 27 -2 47 -6 44 -10 -5 -10 30 -2 130 8 84 17 94 55 55z m-5611 -53
c-7 -8 -17 -15 -23 -15 -6 0 -2 7 9 15 25 19 30 19 14 0z m3837 -122 c-2 -16
-4 -3 -4 27 0 30 2 43 4 28 2 -16 2 -40 0 -55z m-108 34 c0 -12 -4 -31 -9 -42
-6 -15 -9 -8 -9 28 -1 30 3 46 9 42 6 -3 10 -16 9 -28z m-2799 -47 c25 -7 36
-7 41 2 6 9 14 6 32 -10 23 -22 28 -22 284 -22 224 0 264 -2 277 -16 9 -8 16
-19 16 -23 0 -12 -175 -20 -435 -23 -150 -1 -230 -6 -252 -14 -21 -8 -33 -9
-33 -3 0 7 -74 8 -228 3 -232 -7 -378 0 -351 17 8 5 139 9 291 9 l278 0 -7 45
c-6 44 -5 45 23 45 16 0 45 -4 64 -10z m3160 1 c0 -8 -81 -55 -265 -155 l-50
-28 34 29 c19 15 84 54 145 86 61 32 115 63 121 68 11 11 15 11 15 0z m2660
-35 c0 -24 3 -52 6 -61 6 -15 -1 -17 -70 -14 -59 3 -79 0 -87 -11 -8 -13 -12
-12 -26 8 -15 22 -18 22 -252 22 -130 0 -259 3 -287 6 l-51 6 22 24 22 24 267
0 c235 0 267 2 273 16 5 13 16 15 57 10 28 -3 65 -2 81 3 17 5 33 10 38 10 4
1 7 -19 7 -43z m-1203 -13 c-3 -10 -5 -4 -5 12 0 17 2 24 5 18 2 -7 2 -21 0
-30z m-1999 0 c18 -11 29 -23 26 -26 -4 -4 -21 3 -38 16 -16 12 -37 22 -44 23
-8 2 -17 5 -20 9 -14 13 46 -4 76 -22z m4095 -33 c7 0 3 -6 -8 -13 -15 -9
-126 -13 -410 -15 -338 -3 -393 -1 -410 12 -18 14 19 15 388 16 379 0 408 1
415 18 6 16 7 16 10 0 2 -10 9 -18 15 -18z m-4008 -26 c17 -13 15 -12 -12 1
-18 8 -33 20 -33 26 0 6 4 6 13 -1 6 -6 21 -17 32 -26z m4075 18 c0 -4 -9 -8
-20 -9 -11 -1 -18 2 -15 8 7 11 35 12 35 1z m-7863 -66 c-4 -9 -15 -16 -26
-16 -10 0 -22 -7 -25 -16 -8 -20 -26 -9 -26 17 0 12 12 24 33 33 35 14 53 7
44 -18z m6866 27 c-13 -2 -35 -2 -50 0 -16 2 -5 4 22 4 28 0 40 -2 28 -4z
m-6973 -58 c0 -29 -43 -60 -58 -42 -16 21 -23 55 -12 62 5 3 14 -5 20 -19 14
-37 33 -33 25 4 -5 25 -4 29 9 24 9 -3 16 -16 16 -29z m-102 16 c8 -5 12 -22
10 -42 -3 -29 -7 -34 -31 -37 -16 -2 -39 4 -52 12 -13 9 -31 16 -40 16 -9 0
-15 9 -15 25 0 30 20 33 27 5 3 -11 9 -20 13 -20 4 0 22 -3 40 -7 24 -4 31 -3
26 5 -4 7 -16 12 -27 12 -26 0 -24 13 4 26 29 15 30 15 45 5z m-153 -63 c6
-15 1 -26 -16 -39 -12 -9 -29 -15 -36 -12 -7 3 -13 -2 -13 -11 0 -22 -19 -20
-26 2 -3 9 -10 25 -16 36 -7 13 -6 22 2 30 8 8 12 5 16 -12 8 -29 18 -28 38 3
20 31 42 32 51 3z m-185 -72 c-8 -8 -15 -6 -26 8 -20 28 -17 44 9 48 17 2 23
-3 25 -21 2 -13 -2 -29 -8 -35z m60 40 c0 -14 -4 -28 -10 -31 -6 -4 -10 7 -10
24 0 17 5 31 10 31 6 0 10 -11 10 -24z m182 1 c-24 -11 -38 -5 -28 11 3 6 16
8 28 4 l22 -5 -22 -10z m2216 -12 c3 -13 -28 -15 -252 -15 -140 0 -266 -4
-279 -9 -26 -10 -41 -46 -28 -69 7 -12 58 -15 322 -15 173 0 277 -2 232 -4
-46 -2 -83 -8 -83 -13 0 -5 30 -11 68 -13 37 -2 -71 -4 -240 -5 -295 -2 -308
-1 -318 17 -22 43 -5 110 34 130 27 14 94 17 341 14 171 -2 200 -5 203 -18z
m4608 10 c12 -3 25 -12 28 -21 6 -14 4 -15 -9 -4 -14 12 -15 11 -4 -14 8 -16
15 -22 19 -15 13 20 19 -45 7 -71 l-12 -25 -335 -2 c-184 -1 -329 1 -322 4 6
2 12 11 12 19 0 12 48 14 299 14 214 0 300 -3 303 -11 3 -8 10 -5 22 6 32 32
-4 108 -46 97 -16 -4 -19 -2 -13 9 7 11 6 12 -6 2 -23 -19 -153 -26 -313 -18
-103 5 -146 11 -143 19 2 6 28 13 58 16 62 6 423 2 455 -5z m-7137 -32 c0 -34
-1 -36 -11 -16 -6 12 -8 29 -5 37 11 27 17 18 16 -21z m2071 -43 c0 -5 8 -7
18 -3 16 5 16 5 -1 -13 -14 -15 -19 -16 -26 -5 -7 10 -13 11 -29 2 -22 -12
-39 0 -27 19 8 13 65 13 65 0z m-255 -27 c-44 -2 -218 -7 -388 -11 l-307 -8
-92 -89 c-96 -93 -88 -80 19 33 55 59 67 67 110 72 26 4 203 7 393 7 190 -1
309 -2 265 -4z m6168 -5 c14 -11 -39 -12 -275 -10 -172 2 -285 7 -273 12 34
14 528 12 548 -2z m-3549 -16 c-15 -10 -44 -67 -44 -88 0 -10 -5 -14 -15 -10
-22 8 -18 -3 8 -25 20 -19 20 -20 2 -15 -11 3 -27 1 -35 -5 -13 -9 -13 -10 0
-8 8 1 336 1 728 0 l712 -1 0 -135 0 -135 -355 0 -355 0 0 -605 c0 -586 -1
-606 -21 -659 -32 -87 -95 -131 -231 -160 l-28 -6 0 715 0 715 -330 0 c-317 0
-331 -1 -350 -20 -19 -19 -20 -33 -20 -505 l0 -485 165 0 165 0 0 -110 0 -110
-187 0 c-167 0 -193 3 -233 21 -60 27 -98 64 -126 124 l-24 50 0 653 0 652
145 0 c129 0 172 8 133 23 -7 3 -4 6 6 6 24 1 216 92 216 102 0 4 13 10 30 14
16 4 33 11 36 16 3 6 9 8 12 4 4 -3 2 -9 -4 -13z m2899 11 c-7 -2 -21 -2 -30
0 -10 3 -4 5 12 5 17 0 24 -2 18 -5z m-6669 -199 c9 -24 7 -34 -8 -34 -16 0
-29 27 -20 41 8 14 21 11 28 -7z m-64 -1 c0 -5 -4 -15 -10 -23 -11 -18 -25 -7
-17 15 6 15 27 21 27 8z m-58 -44 c6 -37 -13 -59 -43 -52 -32 9 -49 73 -19 73
4 0 13 -13 19 -30 13 -38 23 -39 21 -2 -3 36 -2 42 9 42 5 0 11 -14 13 -31z
m6776 -236 l2 -253 199 0 c197 0 199 0 251 -27 68 -37 107 -91 120 -168 5 -33
10 -212 10 -397 l0 -338 -115 0 -115 0 -2 358 -3 357 -172 3 -173 2 0 -360 0
-360 -118 0 -117 0 4 615 3 615 -216 0 -217 0 32 45 c47 65 137 153 162 158
12 3 121 4 242 3 l220 -1 3 -252z m-6887 209 c4 -18 2 -35 -3 -38 -13 -8 -14
-5 -22 40 -9 48 15 46 25 -2z m1862 19 c341 -1 407 -3 407 -15 0 -8 -7 -17
-16 -20 -13 -5 -410 -7 -1530 -8 -50 0 -100 5 -110 10 -15 9 2 11 74 12 70 0
97 4 109 15 13 13 58 15 336 11 177 -2 505 -5 730 -5z m5535 -18 c3 -23 3 -23
-145 -23 -159 0 -193 5 -193 25 0 19 18 21 185 21 148 -1 150 -1 153 -23z
m-7459 -14 c14 -41 14 -49 -1 -49 -15 1 -50 65 -41 74 15 14 32 4 42 -25z
m3397 18 c4 -4 10 -48 12 -97 l4 -90 -337 0 -337 0 6 24 c9 35 -19 114 -51
148 l-27 29 361 -3 c199 -2 365 -6 369 -11z m2693 -37 c23 -28 41 -54 39 -59
-2 -5 -20 -27 -40 -50 l-38 -41 -280 0 -280 0 0 81 c0 129 -23 119 289 119
l268 0 42 -50z m-3500 25 c53 -27 81 -71 81 -126 0 -62 -19 -100 -67 -135 -21
-16 -44 -35 -52 -43 -10 -12 -14 -13 -18 -3 -3 6 -10 12 -17 12 -7 0 -33 14
-58 30 -101 67 -103 196 -4 255 47 28 94 32 135 10z m5092 6 c-11 -7 -7 -10
15 -14 16 -2 -6 -5 -48 -6 -90 -1 -116 16 -31 22 32 2 63 4 68 5 6 1 4 -2 -4
-7z m-7737 -17 c9 -24 7 -54 -3 -54 -5 0 -13 9 -16 20 -6 20 -45 29 -45 10 0
-5 7 -10 15 -10 17 0 20 -26 5 -35 -6 -4 -17 -2 -25 5 -9 8 -15 8 -20 0 -11
-18 -23 -2 -17 25 2 14 14 32 25 40 28 20 73 19 81 -1z m636 7 c0 -5 12 -12
28 -14 15 -2 3 -5 -25 -6 -41 -1 -53 2 -53 14 0 9 9 15 25 15 14 0 25 -4 25
-9z m-770 -35 c0 -19 3 -41 6 -50 13 -34 -17 -14 -31 20 -11 28 -12 40 -4 50
19 23 29 16 29 -20z m-95 -43 c-6 -53 -12 -64 -20 -37 -4 10 -11 27 -16 37 -6
10 -6 17 0 17 5 0 13 9 16 20 11 36 24 11 20 -37z m53 5 c-4 -39 -25 -48 -34
-14 -7 29 1 46 22 46 11 0 14 -9 12 -32z m-104 -4 c9 -24 7 -54 -3 -54 -6 0
-17 10 -25 22 -9 12 -16 18 -17 13 -1 -6 -2 -19 -3 -29 0 -11 -7 -21 -13 -23
-9 -3 -13 8 -13 37 0 37 2 41 20 35 11 -4 20 -2 20 4 0 17 27 13 34 -5z m-96
-22 c2 -8 -5 -11 -20 -10 -17 2 -24 -3 -26 -19 -3 -22 5 -27 38 -24 13 2 13 1
0 -8 -22 -16 -47 -13 -54 5 -11 30 -6 51 17 62 26 12 39 11 45 -6z m-100 -60
c6 -18 -15 -14 -22 4 -4 10 -1 14 6 12 6 -2 14 -10 16 -16z m-201 -49 c-3 -10
-5 -4 -5 12 0 17 2 24 5 18 2 -7 2 -21 0 -30z m2763 -19 c69 -32 110 -72 141
-139 16 -33 29 -65 29 -72 0 -9 -98 -10 -399 -6 -307 5 -406 3 -429 -6 -28
-12 -31 -18 -37 -75 -7 -67 -3 -462 5 -469 3 -3 141 -8 308 -12 l302 -7 0 76
0 76 -119 0 -118 0 -6 93 c-3 50 -3 95 0 100 2 4 114 7 249 7 l245 0 -3 -432
-3 -433 -26 -56 c-37 -79 -90 -133 -167 -171 l-67 -33 -415 0 -415 0 0 115 0
115 388 1 c480 1 441 -13 445 161 l3 120 -293 5 c-268 5 -298 7 -348 26 -79
31 -124 72 -162 150 l-33 67 0 290 c0 259 2 295 18 335 41 99 130 170 238 189
30 5 182 9 339 8 264 -2 288 -4 330 -23z m486 -123 c-23 -25 -13 -87 15 -94
15 -4 17 -10 10 -29 -6 -18 -17 -24 -50 -26 -40 -3 -41 -3 -41 30 0 18 3 57 6
86 7 52 7 52 42 52 34 0 34 -1 18 -19z m-1679 -103 c28 -26 29 -63 3 -105 -22
-37 -46 -46 -116 -41 l-49 3 -3 68 c-4 88 4 97 81 97 49 0 65 -4 84 -22z
m2503 -103 l0 -105 -130 0 -130 0 0 -360 0 -361 -117 3 -118 3 0 379 0 379 60
54 c33 29 87 67 119 83 56 29 65 30 188 30 l128 0 0 -105z m2400 0 l0 -105
-215 0 -215 0 0 -55 0 -55 215 0 215 0 0 -100 0 -100 -215 0 -215 0 0 -95 0
-95 215 0 215 0 0 -111 0 -111 -227 4 c-224 3 -229 4 -278 30 -62 33 -108 80
-134 138 -19 42 -21 65 -21 316 l0 270 26 52 c53 107 99 120 402 121 l232 1 0
-105z m790 0 l0 -105 -27 0 c-16 -1 -115 0 -220 0 l-193 1 0 -251 0 -250 220
0 220 0 0 -110 0 -110 -227 0 c-219 0 -230 1 -278 24 -62 29 -107 76 -137 141
-22 47 -23 64 -26 300 -4 274 1 311 50 372 66 83 101 91 391 92 l227 1 0 -105z
m-3910 -380 l0 -445 -115 0 -115 0 0 415 0 415 65 0 c69 0 121 16 144 43 7 10
15 17 17 17 2 0 4 -200 4 -445z m-1910 -37 c28 -31 27 -92 -2 -112 -35 -25
-83 -20 -107 10 -28 35 -26 69 4 99 31 32 77 33 105 3z m-490 -129 c0 -5 5 -7
10 -4 6 3 13 -1 17 -10 3 -10 20 -23 37 -31 26 -11 27 -13 9 -14 -12 0 -25 5
-28 10 -10 17 -25 11 -19 -7 5 -15 4 -15 -4 -3 -9 12 -14 11 -30 -8 -21 -24
-42 -31 -22 -7 6 8 9 24 5 37 -5 17 -4 19 4 8 15 -21 25 -5 11 19 -7 14 -7 21
0 21 5 0 10 -5 10 -11z m97 -35 c-3 -3 -12 -4 -19 -1 -8 3 -5 6 6 6 11 1 17
-2 13 -5z m-45 -47 c-8 -10 -6 -16 9 -26 12 -7 18 -15 15 -18 -3 -4 -15 2 -26
12 -15 14 -17 21 -9 32 6 7 14 13 16 13 3 0 1 -6 -5 -13z m863 -216 c131 -7
125 -8 -95 -8 -129 0 -266 3 -305 7 -96 9 209 10 400 1z m1511 -293 c27 -13
30 -26 11 -52 -11 -15 -17 -16 -35 -7 -33 18 -72 14 -72 -7 0 -12 19 -27 55
-45 67 -33 90 -64 81 -112 -9 -49 -47 -75 -108 -75 -53 0 -108 22 -108 44 0 7
8 20 18 29 15 13 19 14 36 1 11 -8 29 -14 41 -14 40 0 62 45 28 57 -93 31
-133 74 -118 125 22 70 90 93 171 56z m460 14 c6 -4 26 -31 44 -59 17 -29 35
-53 39 -53 4 0 20 21 37 47 16 25 35 52 42 60 13 13 82 19 82 6 0 -3 -27 -48
-60 -100 -56 -87 -60 -97 -60 -153 l0 -60 -35 0 -35 0 0 57 c0 54 -4 63 -65
154 -36 54 -65 99 -65 101 0 8 65 8 76 0z m794 -15 c25 -15 25 -29 0 -52 -16
-14 -23 -16 -32 -7 -7 7 -25 12 -40 12 -21 0 -28 -5 -28 -19 0 -14 13 -24 44
-36 63 -24 91 -57 91 -107 0 -57 -38 -88 -106 -88 -51 0 -109 22 -109 41 0 6
5 19 10 30 10 18 13 18 40 4 41 -21 77 -19 85 5 9 27 2 34 -45 50 -45 15 -90
60 -90 90 0 80 105 125 180 77z m640 -12 c0 -34 -1 -35 -40 -35 l-40 0 0 -125
0 -125 -35 0 -35 0 0 125 0 125 -45 0 c-43 0 -45 1 -45 30 l0 29 94 3 c52 2
106 4 120 5 23 3 26 -1 26 -32z m1131 23 c9 -7 30 -32 48 -55 18 -24 36 -43
39 -43 4 0 23 22 42 50 31 44 39 49 73 50 l37 0 0 -155 0 -155 -35 0 -34 0 -3
98 -3 97 -30 -44 c-16 -25 -35 -46 -42 -48 -6 -2 -27 16 -46 41 l-34 46 -7
-38 c-3 -20 -6 -63 -6 -94 l0 -58 -35 0 -34 0 0 154 c1 136 3 155 17 159 30 8
38 7 53 -5z m827 -14 c18 -12 20 -18 12 -34 -14 -27 -29 -33 -45 -20 -19 16
-70 9 -70 -10 0 -8 24 -26 54 -41 64 -30 81 -51 81 -100 0 -75 -94 -113 -186
-74 -35 14 -35 15 -20 44 l15 29 45 -16 c37 -14 47 -14 60 -3 9 7 16 19 16 26
0 12 -41 35 -65 35 -7 0 -27 12 -44 26 -55 46 -37 133 32 153 37 11 83 5 115
-15z m-1318 -14 c0 -17 -5 -30 -12 -31 -7 0 -43 0 -80 1 l-68 1 0 -30 0 -31
76 0 75 0 -3 -32 -3 -33 -73 4 -73 3 3 -33 3 -34 78 -3 77 -3 0 -29 0 -30
-115 0 -115 0 0 155 0 155 115 0 115 0 0 -30z m2305 -160 c-76 -12 -693 -12
-700 0 -4 7 122 10 372 9 222 -1 357 -5 328 -9z m-4085 -375 c0 -8 -4 -15 -10
-15 -6 0 -10 -30 -10 -70 0 -53 -3 -70 -14 -70 -10 0 -16 20 -21 70 -4 39 -11
70 -16 70 -5 0 -9 7 -9 15 0 11 11 15 40 15 29 0 40 -4 40 -15z m133 0 c-1 -5
-11 -11 -23 -13 -27 -4 -27 -42 0 -42 11 0 20 -6 20 -14 0 -8 -9 -18 -20 -21
-27 -9 -25 -33 3 -37 34 -5 22 -23 -18 -26 l-35 -3 0 86 0 86 38 -3 c20 -2 36
-7 35 -13z m155 -7 c3 -13 -3 -16 -25 -15 -22 2 -29 -3 -31 -20 -3 -20 1 -23
30 -24 30 -1 31 -2 8 -8 -37 -10 -35 -47 3 -43 30 3 35 -9 13 -28 -22 -18 -59
-8 -74 20 -15 28 -9 105 10 127 15 19 62 12 66 -9z m114 -10 c4 -46 28 -49 28
-4 0 25 4 36 15 36 12 0 15 -16 15 -85 0 -66 -3 -85 -14 -85 -18 0 -26 22 -19
49 4 17 1 21 -17 21 -19 0 -22 -4 -18 -35 3 -29 1 -35 -14 -35 -16 0 -18 9
-18 69 0 38 3 76 6 85 11 28 33 18 36 -16z m294 24 c19 -11 29 -119 14 -138
-11 -12 -15 -12 -22 -2 -6 9 -7 5 -3 -9 6 -23 -1 -29 -21 -15 -12 8 -34 88
-34 125 0 15 8 28 23 35 27 13 29 13 43 4z m141 -29 l18 -38 3 38 c2 25 8 37
18 37 23 0 16 -163 -8 -168 -12 -2 -20 8 -29 37 -16 53 -33 53 -24 1 6 -33 4
-40 -9 -40 -13 0 -16 14 -16 85 0 97 16 113 47 48z m143 -48 c0 -69 -3 -85
-15 -85 -12 0 -15 14 -15 69 0 72 6 101 21 101 5 0 9 -38 9 -85z m210 70 c16
-20 7 -134 -12 -146 -7 -5 -23 -9 -35 -9 -22 0 -23 3 -23 85 l0 85 29 0 c16 0
34 -7 41 -15z m150 0 c0 -9 -9 -15 -25 -15 -18 0 -25 -5 -25 -20 0 -13 7 -20
20 -20 11 0 20 -6 20 -14 0 -7 -9 -16 -20 -19 -29 -8 -26 -37 5 -37 16 0 25
-6 25 -16 0 -12 -9 -14 -37 -12 l-38 3 -2 83 -2 82 40 0 c28 0 39 -4 39 -15z
m150 0 c0 -9 -10 -15 -26 -15 -24 0 -25 -3 -23 -42 4 -73 0 -98 -16 -98 -12 0
-15 16 -15 85 l0 85 40 0 c29 0 40 -4 40 -15z m119 -71 l2 -85 -33 3 -33 3 -3
83 -3 82 34 0 33 0 3 -86z m149 74 c19 -19 14 -27 -15 -25 -27 2 -28 -1 -31
-46 -2 -36 1 -49 13 -53 9 -4 19 -3 23 1 4 4 1 10 -5 12 -18 6 -16 23 2 23 15
0 20 -26 9 -54 -9 -23 -40 -20 -58 6 -18 25 -21 100 -6 129 12 21 50 25 68 7z
m142 -3 c0 -8 -4 -15 -10 -15 -6 0 -10 -30 -10 -70 0 -56 -3 -70 -15 -70 -12
0 -15 14 -15 69 0 39 -4 73 -10 76 -21 13 -9 25 25 25 24 0 35 -5 35 -15z
m154 -1 c21 -20 20 -38 0 -30 -9 4 -22 2 -29 -4 -11 -9 -12 -7 -8 9 8 31 -16
25 -28 -6 -14 -35 0 -98 21 -98 11 0 14 9 12 33 -3 27 0 32 17 32 17 0 21 -6
21 -33 0 -40 -15 -57 -51 -57 -36 0 -51 21 -57 81 -4 38 -1 54 13 69 22 24 68
26 89 4z m156 2 c0 -8 -5 -16 -10 -18 -6 -2 -13 -33 -17 -71 -3 -37 -10 -67
-14 -67 -5 0 -9 31 -9 69 0 52 -4 70 -15 75 -29 11 -15 26 25 26 28 0 40 -4
40 -14z m-3390 -6 c0 -7 -185 -10 -535 -10 -350 0 -535 3 -535 10 0 7 185 10
535 10 350 0 535 -3 535 -10z m935 0 c4 -7 -132 -10 -399 -10 -264 0 -406 3
-406 10 0 6 140 10 399 10 256 0 402 -4 406 -10z m3930 -1 c-617 -8 -1371 -8
-1285 1 36 4 450 6 920 6 776 0 810 0 365 -7z"/>
<path d="M2257 9084 c-8 -8 1 -24 14 -24 5 0 9 7 9 15 0 15 -12 20 -23 9z"/>
<path d="M4830 9061 c-31 -6 -29 -8 27 -12 51 -4 70 -11 104 -38 l41 -33 26
25 c33 31 71 47 120 48 l37 2 -45 8 c-54 9 -260 9 -310 0z m193 -16 c4 -6 11
-4 17 5 6 9 10 10 10 3 0 -20 -12 -21 -85 -7 l-70 13 60 -2 c33 -1 63 -6 68
-12z"/>
<path d="M4476 8712 c-4 -11 -18 -30 -33 -43 -20 -18 -25 -20 -20 -6 4 9 5 17
3 17 -2 0 -38 -51 -80 -112 -42 -62 -93 -135 -112 -163 l-36 -50 37 40 c20 22
64 76 97 120 34 44 80 103 103 130 64 78 68 85 57 85 -6 0 -13 -8 -16 -18z"/>
<path d="M4868 8613 c7 -3 16 -2 19 1 4 3 -2 6 -13 5 -11 0 -14 -3 -6 -6z"/>
<path d="M4851 8557 l-25 -32 32 29 c33 31 37 36 25 35 -5 0 -19 -14 -32 -32z"/>
<path d="M5560 8556 c0 -2 8 -10 18 -17 15 -13 16 -12 3 4 -13 16 -21 21 -21
13z"/>
<path d="M5633 8532 c1 -18 8 -34 15 -37 7 -3 11 -9 8 -14 -5 -7 63 -91 122
-151 3 -3 -1 6 -8 19 -11 22 -127 202 -136 210 -2 2 -2 -10 -1 -27z"/>
<path d="M5662 8371 c13 -15 25 -27 27 -25 7 6 -29 54 -40 54 -6 0 0 -13 13
-29z"/>
<path d="M4426 8371 c-4 -5 -2 -12 3 -15 5 -4 12 -2 15 3 4 5 2 12 -3 15 -5 4
-12 2 -15 -3z"/>
<path d="M5735 8290 c16 -16 30 -28 33 -26 6 6 -40 56 -52 56 -5 0 3 -13 19
-30z"/>
<path d="M4652 8270 c0 -14 2 -19 5 -12 2 6 2 18 0 25 -3 6 -5 1 -5 -13z"/>
<path d="M4631 8204 c-7 -20 -11 -38 -8 -40 3 -3 10 11 17 31 16 47 8 55 -9 9z"/>
<path d="M4456 8215 c-9 -26 -7 -32 5 -12 6 10 9 21 6 23 -2 3 -7 -2 -11 -11z"/>
<path d="M3838 7562 c-39 -43 -91 -118 -101 -145 -13 -35 13 -6 49 56 20 34
50 77 67 95 17 17 28 32 25 32 -3 0 -21 -17 -40 -38z"/>
<path d="M3737 7168 c-30 -46 -64 -92 -76 -102 -11 -11 -21 -23 -21 -29 0 -20
100 99 130 154 17 33 29 59 27 59 -3 0 -30 -37 -60 -82z"/>
<path d="M6461 7156 c7 -8 99 -36 99 -30 0 3 -11 9 -25 14 -37 14 -81 24 -74
16z"/>
<path d="M2837 7063 c-69 -108 -133 -231 -172 -332 -20 -51 -35 -95 -33 -97 2
-2 22 38 43 89 45 107 132 276 181 353 19 30 32 54 30 54 -3 0 -25 -30 -49
-67z"/>
<path d="M7253 6898 c30 -57 74 -149 98 -206 24 -56 45 -98 47 -94 8 25 -174
402 -195 402 -2 0 20 -46 50 -102z"/>
<path d="M3422 6883 c-34 -27 -78 -70 -98 -98 -36 -48 -35 -48 27 16 35 36 82
80 104 97 22 18 37 32 34 32 -2 0 -33 -21 -67 -47z"/>
<path d="M7230 6789 c0 -5 5 -7 10 -4 6 3 10 8 10 11 0 2 -4 4 -10 4 -5 0 -10
-5 -10 -11z"/>
<path d="M7245 6770 c-3 -5 -2 -17 3 -26 6 -11 11 -13 16 -5 4 6 2 11 -4 11
-7 0 -10 7 -6 15 6 17 0 20 -9 5z"/>
<path d="M3549 6723 c-13 -16 -12 -17 4 -4 9 7 17 15 17 17 0 8 -8 3 -21 -13z"/>
<path d="M3479 6683 c-13 -17 -13 -17 6 -3 11 8 22 16 24 17 2 2 0 3 -6 3 -6
0 -17 -8 -24 -17z"/>
<path d="M1981 9041 c-12 -7 -11 -12 1 -29 18 -27 38 -15 27 16 -9 25 -9 25
-28 13z"/>
<path d="M1815 9010 c-7 -12 12 -50 25 -50 14 0 12 17 -2 23 -10 4 -10 6 0 6
17 1 15 31 -2 31 -8 0 -18 -4 -21 -10z"/>
<path d="M1540 8935 c0 -16 6 -25 15 -25 9 0 15 9 15 25 0 16 -6 25 -15 25 -9
0 -15 -9 -15 -25z"/>
<path d="M2340 8490 c0 -37 2 -40 26 -40 24 0 26 3 20 31 -3 17 -6 35 -6 40 0
5 -9 9 -20 9 -17 0 -20 -7 -20 -40z"/>
<path d="M2433 8523 c-7 -2 -13 -20 -13 -39 0 -27 4 -34 20 -34 17 0 20 7 20
40 0 40 -3 43 -27 33z"/>
<path d="M2260 8269 l0 -129 275 0 275 0 0 130 0 130 -275 -1 -275 -2 0 -128z
m495 112 c27 -6 30 -10 30 -46 l0 -40 -252 -3 -253 -2 0 45 0 44 143 4 c251 5
301 5 332 -2z m35 -166 l0 -55 -255 0 -255 0 0 55 0 55 255 0 255 0 0 -55z"/>
<path d="M7365 8485 c0 -40 2 -45 20 -43 16 2 20 11 20 43 0 32 -4 41 -20 43
-18 2 -20 -3 -20 -43z"/>
<path d="M7456 8518 c-3 -7 -7 -28 -10 -45 -5 -28 -3 -33 14 -33 17 0 20 7 20
45 0 41 -15 62 -24 33z"/>
<path d="M7277 8383 c-3 -5 -5 -61 -5 -125 l0 -118 219 0 219 0 0 125 0 125
-214 0 c-118 0 -217 -3 -219 -7z m411 -54 l3 -47 -105 -7 c-58 -4 -148 -4
-201 0 l-95 7 0 43 c0 23 3 45 7 49 4 3 93 5 197 4 l191 -3 3 -46z m2 -119 l0
-50 -200 0 -200 0 0 50 0 50 200 0 200 0 0 -50z"/>
<path d="M7002 8438 c-28 -36 -43 -80 -32 -93 19 -23 47 -27 80 -10 23 12 30
22 30 45 0 49 -53 88 -78 58z"/>
<path d="M4920 7532 c0 -5 11 -14 25 -20 26 -12 33 -4 13 16 -14 14 -38 16
-38 4z"/>
<path d="M5024 7525 c-15 -11 -16 -14 -4 -15 21 0 44 16 33 23 -6 4 -19 0 -29
-8z"/>
<path d="M4898 7363 c7 -3 16 -2 19 1 4 3 -2 6 -13 5 -11 0 -14 -3 -6 -6z"/>
<path d="M4825 7343 c39 -27 292 -27 330 1 13 9 -2 12 -74 12 -50 0 -85 -4
-78 -8 11 -7 -50 -5 -156 4 -30 2 -34 1 -22 -9z"/>
<path d="M4950 7248 c0 -5 18 -8 40 -8 22 0 40 2 40 4 0 2 -18 6 -40 8 -22 2
-40 0 -40 -4z"/>
<path d="M617 8354 c-8 -8 1 -24 14 -24 5 0 9 7 9 15 0 15 -12 20 -23 9z"/>
<path d="M1440 8030 c0 -5 5 -10 10 -10 6 0 10 5 10 10 0 6 -4 10 -10 10 -5 0
-10 -4 -10 -10z"/>
<path d="M7228 8043 c7 -3 16 -2 19 1 4 3 -2 6 -13 5 -11 0 -14 -3 -6 -6z"/>
<path d="M1180 7976 c0 -7 6 -19 14 -25 19 -16 32 5 16 24 -16 19 -30 19 -30
1z"/>
<path d="M227 7588 c-7 -27 5 -43 27 -35 12 5 13 12 7 29 -11 30 -27 33 -34 6z"/>
<path d="M6180 7021 c5 -11 15 -23 21 -27 6 -3 3 5 -6 20 -20 30 -30 35 -15 7z"/>
<path d="M6126 6915 c4 -8 11 -15 16 -15 6 0 5 6 -2 15 -7 8 -14 15 -16 15 -2
0 -1 -7 2 -15z"/>
<path d="M540 7160 c0 -6 7 -10 15 -10 8 0 15 2 15 4 0 2 -7 6 -15 10 -8 3
-15 1 -15 -4z"/>
<path d="M8734 7084 c-40 -42 -44 -80 -14 -129 19 -30 72 -65 100 -65 7 0 27
7 46 16 59 28 81 102 49 164 -20 38 -43 50 -101 50 -41 0 -51 -5 -80 -36z
m128 6 c76 -59 50 -170 -39 -170 -28 0 -45 8 -70 32 -46 44 -45 85 2 127 41
36 72 39 107 11z"/>
<path d="M8796 7048 c-22 -31 -20 -45 8 -63 36 -24 66 -5 66 39 0 49 -46 64
-74 24z"/>
<path d="M5460 6791 c0 -6 4 -13 10 -16 6 -3 7 1 4 9 -7 18 -14 21 -14 7z"/>
<path d="M4281 6463 c0 -12 -5 -25 -11 -28 -5 -3 -10 -14 -10 -23 0 -13 3 -12
16 6 8 12 13 32 11 45 l-4 22 -2 -22z"/>
<path d="M3721 6174 c0 -11 3 -14 6 -6 3 7 2 16 -1 19 -3 4 -6 -2 -5 -13z"/>
<path d="M3771 6154 c0 -11 3 -14 6 -6 3 7 2 16 -1 19 -3 4 -6 -2 -5 -13z"/>
<path d="M2126 6820 c12 -5 25 -13 29 -19 3 -6 10 -9 14 -7 4 3 8 0 9 -7 1 -7
4 -26 8 -44 3 -18 1 -47 -5 -65 l-11 -33 25 30 c26 32 32 73 15 106 -12 22
-61 49 -87 48 -15 0 -14 -2 3 -9z"/>
<path d="M2232 6710 c0 -14 2 -19 5 -12 2 6 2 18 0 25 -3 6 -5 1 -5 -13z"/>
<path d="M5550 6340 c0 -5 5 -10 11 -10 5 0 7 5 4 10 -3 6 -8 10 -11 10 -2 0
-4 -4 -4 -10z"/>
<path d="M1022 6720 c0 -14 2 -19 5 -12 2 6 2 18 0 25 -3 6 -5 1 -5 -13z"/>
<path d="M3728 6611 c-7 -12 -18 -21 -24 -21 -6 0 -17 -7 -24 -15 -21 -25 4
-17 40 14 19 16 32 32 28 36 -4 4 -13 -2 -20 -14z"/>
<path d="M8291 6621 c-37 -7 -54 -18 -103 -70 -32 -34 -58 -66 -58 -71 0 -19
111 -119 156 -140 103 -50 208 22 208 142 0 102 -84 159 -203 139z"/>
<path d="M5336 6383 c-6 -14 -5 -15 5 -6 7 7 10 15 7 18 -3 3 -9 -2 -12 -12z"/>
<path d="M7088 6253 c7 -3 16 -2 19 1 4 3 -2 6 -13 5 -11 0 -14 -3 -6 -6z"/>
<path d="M8931 6243 c0 -12 -4 -30 -7 -40 -5 -17 -5 -17 6 0 6 10 9 28 7 40
-4 22 -4 22 -6 0z"/>
<path d="M8398 6025 c-21 -19 -40 -46 -44 -60 -3 -14 -9 -23 -13 -21 -4 3 -7
-4 -7 -15 0 -28 8 -24 38 24 15 23 36 57 48 75 28 40 24 40 -22 -3z"/>
<path d="M7112 5625 c0 -16 2 -22 5 -12 2 9 2 23 0 30 -3 6 -5 -1 -5 -18z"/>
<path d="M7700 5576 c0 -3 9 -10 20 -16 11 -6 20 -8 20 -6 0 3 -9 10 -20 16
-11 6 -20 8 -20 6z"/>
<path d="M6361 5449 c-114 -10 -127 -14 -78 -24 26 -5 37 -12 36 -24 -3 -39 0
-41 67 -41 77 0 154 17 161 36 8 23 21 16 17 -8 -5 -23 -5 -23 8 0 9 18 9 28
0 42 -10 16 -9 18 3 14 8 -4 15 -2 15 3 0 12 -107 13 -229 2z"/>
<path d="M6730 5375 c0 -5 5 -17 10 -25 5 -8 10 -10 10 -5 0 6 -5 17 -10 25
-5 8 -10 11 -10 5z"/>
<path d="M6480 5344 c0 -8 5 -12 10 -9 6 3 10 10 10 16 0 5 -4 9 -10 9 -5 0
-10 -7 -10 -16z"/>
<path d="M6530 5290 c0 -5 5 -10 10 -10 6 0 10 5 10 10 0 6 -4 10 -10 10 -5 0
-10 -4 -10 -10z"/>
<path d="M5555 4820 c-3 -5 -1 -10 4 -10 6 0 11 5 11 10 0 6 -2 10 -4 10 -3 0
-8 -4 -11 -10z"/>
<path d="M4216 4208 c3 -5 10 -6 15 -3 13 9 11 12 -6 12 -8 0 -12 -4 -9 -9z"/>
<path d="M3443 4191 c-18 -10 -66 -24 -108 -31 -41 -7 -75 -16 -75 -20 0 -7
174 15 190 25 5 3 10 2 10 -3 0 -9 31 -23 55 -26 6 -1 13 -5 16 -10 4 -4 15
-3 25 3 17 9 17 11 -6 12 -14 1 -28 1 -32 0 -10 -1 -6 42 5 57 15 19 -42 14
-80 -7z m64 -27 c-3 -3 -12 -4 -19 -1 -8 3 -5 6 6 6 11 1 17 -2 13 -5z"/>
<path d="M3426 4127 c3 -10 9 -15 12 -12 3 3 0 11 -7 18 -10 9 -11 8 -5 -6z"/>
<path d="M3348 4067 c-43 -17 -78 -36 -78 -42 0 -23 48 -64 86 -74 56 -16 79
-34 34 -27 -33 6 -34 5 -7 -5 33 -13 35 -27 5 -33 -35 -7 -62 -4 -76 7 -11 9
-12 3 -6 -29 16 -90 5 -83 157 -88 12 -1 21 4 20 12 -2 6 5 13 15 13 77 6 88
14 71 52 -16 35 -32 35 -18 1 5 -15 8 -28 7 -29 -12 -9 -56 -12 -68 -5 -11 7
-4 10 25 10 22 0 35 4 29 8 -6 4 -13 18 -17 31 -5 20 9 38 94 120 54 53 99 99
99 102 0 4 -12 5 -27 3 -105 -12 -213 -15 -213 -5 0 19 -51 10 -132 -22z m157
-225 c-3 -3 -11 0 -18 7 -9 10 -8 11 6 5 10 -3 15 -9 12 -12z"/>
<path d="M3600 3800 c-9 -6 -10 -10 -3 -10 6 0 15 5 18 10 8 12 4 12 -15 0z"/>
<path d="M1127 5462 c-15 -9 -37 -36 -48 -60 -20 -41 -21 -45 -5 -86 25 -65
58 -91 111 -87 14 1 8 7 -20 20 -57 25 -79 62 -72 120 10 90 93 120 163 59 33
-29 35 -35 30 -72 l-5 -41 16 32 c14 27 14 36 3 64 -26 62 -113 88 -173 51z"/>
<path d="M1150 5380 c-13 -25 -4 -60 15 -60 20 0 35 32 28 58 -7 28 -29 28
-43 2z"/>
<path d="M1180 5280 c-38 -8 -38 -10 -2 -14 12 -2 30 3 40 10 19 15 14 15 -38
4z"/>
<path d="M9016 5412 c-3 -5 1 -9 9 -9 8 0 12 4 9 9 -3 4 -7 8 -9 8 -2 0 -6 -4
-9 -8z"/>
<path d="M7782 5280 c0 -19 4 -46 8 -60 7 -21 8 -19 8 15 0 22 -3 49 -8 60 -7
16 -9 13 -8 -15z"/>
<path d="M714 5064 c-9 -33 7 -79 26 -79 23 0 21 99 -2 103 -12 2 -19 -5 -24
-24z"/>
<path d="M3090 4006 c0 -2 7 -7 16 -10 8 -3 12 -2 9 4 -6 10 -25 14 -25 6z"/>
<path d="M4967 4848 c-3 -9 5 -13 24 -13 26 0 27 1 12 13 -9 6 -20 12 -24 12
-4 0 -9 -6 -12 -12z"/>
<path d="M7498 3923 c12 -2 30 -2 40 0 9 3 -1 5 -23 4 -22 0 -30 -2 -17 -4z"/>
<path d="M1450 2631 c-13 -24 -2 -31 29 -20 19 8 21 12 11 24 -17 20 -27 19
-40 -4z"/>
<path d="M4870 1389 c0 -11 5 -17 10 -14 6 3 10 13 10 21 0 8 -4 14 -10 14 -5
0 -10 -9 -10 -21z"/>
<path d="M4886 1351 c-4 -7 -5 -15 -2 -18 9 -9 19 4 14 18 -4 11 -6 11 -12 0z"/>
<path d="M5354 1384 c3 -9 6 -33 6 -55 0 -21 5 -39 10 -39 6 0 10 25 10 55 0
44 -3 55 -16 55 -11 0 -14 -5 -10 -16z"/>
<path d="M5780 1395 c0 -8 5 -15 10 -15 6 0 10 7 10 15 0 8 -4 15 -10 15 -5 0
-10 -7 -10 -15z"/>
<path d="M5780 1330 c0 -5 5 -10 10 -10 6 0 10 5 10 10 0 6 -4 10 -10 10 -5 0
-10 -4 -10 -10z"/>
<path d="M5780 1291 c0 -5 5 -13 10 -16 6 -3 10 -2 10 4 0 5 -4 13 -10 16 -5
3 -10 2 -10 -4z"/>
<path d="M0 7524 c0 -8 5 -12 10 -9 6 4 8 11 5 16 -9 14 -15 11 -15 -7z"/>
<path d="M1 7044 c0 -11 3 -14 6 -6 3 7 2 16 -1 19 -3 4 -6 -2 -5 -13z"/>
</g>
</svg>
